<svg width="340" height="172" viewBox="0 0 340 172" fill="none" xmlns="http://www.w3.org/2000/svg">
<rect x="0.500122" y="0.5" width="339" height="171" rx="9.5" stroke="#AAC3AD"/>
<path d="M22.3748 17.625V18.8594H16.8904V29H15.3904V17.625H22.3748ZM26.9216 18.6328L23.156 29H21.6169L25.9529 17.625H26.9451L26.9216 18.6328ZM30.0779 29L26.3044 18.6328L26.281 17.625H27.2732L31.6248 29H30.0779ZM29.8826 24.7891V26.0234H23.4919V24.7891H29.8826ZM37.3435 24.5391H34.3044V23.3125H37.3435C37.932 23.3125 38.4086 23.2188 38.7732 23.0312C39.1378 22.8438 39.4034 22.5833 39.5701 22.25C39.7419 21.9167 39.8279 21.5365 39.8279 21.1094C39.8279 20.7188 39.7419 20.3516 39.5701 20.0078C39.4034 19.6641 39.1378 19.388 38.7732 19.1797C38.4086 18.9661 37.932 18.8594 37.3435 18.8594H34.656V29H33.1482V17.625H37.3435C38.2029 17.625 38.9294 17.7734 39.5232 18.0703C40.1169 18.3672 40.5675 18.7786 40.8748 19.3047C41.182 19.8255 41.3357 20.4219 41.3357 21.0938C41.3357 21.8229 41.182 22.4453 40.8748 22.9609C40.5675 23.4766 40.1169 23.8698 39.5232 24.1406C38.9294 24.4062 38.2029 24.5391 37.3435 24.5391ZM46.3748 18.6328L42.6091 29H41.0701L45.406 17.625H46.3982L46.3748 18.6328ZM49.531 29L45.7576 18.6328L45.7341 17.625H46.7263L51.0779 29H49.531ZM49.3357 24.7891V26.0234H42.9451V24.7891H49.3357ZM60.031 22.5156V23.7422H53.8748V22.5156H60.031ZM54.1091 17.625V29H52.6013V17.625H54.1091ZM61.3435 17.625V29H59.8435V17.625H61.3435ZM67.9919 17.625V29H66.5076V17.625H67.9919ZM71.6482 17.625V18.8594H62.8591V17.625H71.6482ZM74.906 26.3906L80.5076 17.625H82.0154V29H80.5076V20.2266L74.906 29H73.406V17.625H74.906V26.3906ZM91.0701 24.5703H87.8748L87.1326 24.2656C86.3097 24.0052 85.6768 23.6068 85.2341 23.0703C84.7914 22.5286 84.5701 21.8568 84.5701 21.0547C84.5701 20.3203 84.7315 19.6979 85.0544 19.1875C85.3826 18.6771 85.8461 18.2891 86.4451 18.0234C87.0492 17.7578 87.7628 17.625 88.5857 17.625H92.2263V29H90.7185V18.8594H88.5857C87.7524 18.8594 87.1248 19.0573 86.7029 19.4531C86.2862 19.849 86.0779 20.3828 86.0779 21.0547C86.0779 21.4922 86.169 21.8828 86.3513 22.2266C86.5388 22.5703 86.8149 22.8411 87.1794 23.0391C87.544 23.237 87.9972 23.3359 88.5388 23.3359H91.0779L91.0701 24.5703ZM88.5076 23.7891L85.7419 29H84.1404L86.9841 23.7891H88.5076ZM106.344 22.5156V23.7422H100.187V22.5156H106.344ZM100.422 17.625V29H98.9138V17.625H100.422ZM107.656 17.625V29H106.156V17.625H107.656ZM114.687 18.6328L110.922 29H109.383L113.719 17.625H114.711L114.687 18.6328ZM117.844 29L114.07 18.6328L114.047 17.625H115.039L119.39 29H117.844ZM117.648 24.7891V26.0234H111.258V24.7891H117.648ZM125.359 17.625H126.82L130.547 26.8984L134.265 17.625H135.734L131.109 29H129.969L125.359 17.625ZM124.883 17.625H126.172L126.383 24.5625V29H124.883V17.625ZM134.914 17.625H136.203V29H134.703V24.5625L134.914 17.625ZM146.078 27.7734V29H140.054V27.7734H146.078ZM140.359 17.625V29H138.851V17.625H140.359ZM145.281 22.5156V23.7422H140.054V22.5156H145.281ZM146 17.625V18.8594H140.054V17.625H146ZM154.883 17.625V18.8594H149.398V29H147.898V17.625H154.883ZM149.047 22.2578H152.148C152.982 22.2578 153.685 22.3984 154.258 22.6797C154.83 22.9557 155.265 23.3438 155.562 23.8438C155.859 24.3438 156.008 24.9297 156.008 25.6016C156.008 26.1016 155.924 26.5599 155.758 26.9766C155.591 27.388 155.344 27.7474 155.015 28.0547C154.687 28.3568 154.284 28.5911 153.804 28.7578C153.325 28.9193 152.773 29 152.148 29H147.898V17.625H149.406V27.7734H152.148C152.705 27.7734 153.156 27.6719 153.5 27.4688C153.849 27.2604 154.104 26.9896 154.265 26.6562C154.427 26.3229 154.508 25.9661 154.508 25.5859C154.508 25.2057 154.427 24.8568 154.265 24.5391C154.104 24.2214 153.849 23.9688 153.5 23.7812C153.156 23.5885 152.705 23.4922 152.148 23.4922H149.047V22.2578ZM165.265 27.7734V29H159.242V27.7734H165.265ZM159.547 17.625V29H158.039V17.625H159.547ZM164.469 22.5156V23.7422H159.242V22.5156H164.469ZM165.187 17.625V18.8594H159.242V17.625H165.187ZM174.445 17.625V18.8594H169.242V17.625H174.445ZM175.742 17.625V29H174.234V17.625H175.742ZM168.726 17.625H170.226L169.969 23.1953C169.932 23.9974 169.87 24.7135 169.781 25.3438C169.698 25.9688 169.578 26.513 169.422 26.9766C169.265 27.4349 169.062 27.8151 168.812 28.1172C168.562 28.4141 168.255 28.6354 167.89 28.7812C167.531 28.9271 167.099 29 166.594 29H166.187V27.7734L166.5 27.75C166.791 27.7292 167.041 27.6641 167.25 27.5547C167.463 27.4401 167.643 27.2682 167.789 27.0391C167.94 26.8099 168.062 26.513 168.156 26.1484C168.25 25.7839 168.323 25.3385 168.375 24.8125C168.432 24.2812 168.476 23.6615 168.508 22.9531L168.726 17.625ZM179.562 22.2578H182.664C183.497 22.2578 184.2 22.3984 184.773 22.6797C185.346 22.9557 185.781 23.3438 186.078 23.8438C186.375 24.3438 186.523 24.9297 186.523 25.6016C186.523 26.1016 186.44 26.5599 186.273 26.9766C186.107 27.388 185.859 27.7474 185.531 28.0547C185.203 28.3568 184.799 28.5911 184.32 28.7578C183.841 28.9193 183.289 29 182.664 29H178.414V17.625H179.922V27.7734H182.664C183.221 27.7734 183.672 27.6719 184.015 27.4688C184.364 27.2604 184.62 26.9896 184.781 26.6562C184.942 26.3229 185.023 25.9661 185.023 25.5859C185.023 25.2057 184.942 24.8568 184.781 24.5391C184.62 24.2214 184.364 23.9688 184.015 23.7812C183.672 23.5885 183.221 23.4922 182.664 23.4922H179.562V22.2578ZM24.0779 41.9531V42.6719C24.0779 43.526 23.9711 44.2917 23.7576 44.9688C23.544 45.6458 23.2367 46.2214 22.8357 46.6953C22.4347 47.1693 21.9529 47.5312 21.3904 47.7812C20.8331 48.0312 20.2081 48.1562 19.5154 48.1562C18.8435 48.1562 18.2263 48.0312 17.6638 47.7812C17.1065 47.5312 16.6222 47.1693 16.2107 46.6953C15.8044 46.2214 15.4893 45.6458 15.2654 44.9688C15.0414 44.2917 14.9294 43.526 14.9294 42.6719V41.9531C14.9294 41.099 15.0388 40.3359 15.2576 39.6641C15.4815 38.987 15.7966 38.4115 16.2029 37.9375C16.6091 37.4583 17.0909 37.0938 17.6482 36.8438C18.2107 36.5938 18.8279 36.4688 19.4998 36.4688C20.1925 36.4688 20.8175 36.5938 21.3748 36.8438C21.9373 37.0938 22.419 37.4583 22.8201 37.9375C23.2263 38.4115 23.5362 38.987 23.7498 39.6641C23.9685 40.3359 24.0779 41.099 24.0779 41.9531ZM22.5857 42.6719V41.9375C22.5857 41.2604 22.5154 40.6615 22.3748 40.1406C22.2393 39.6198 22.0388 39.1823 21.7732 38.8281C21.5076 38.474 21.182 38.2057 20.7966 38.0234C20.4164 37.8411 19.9841 37.75 19.4998 37.75C19.031 37.75 18.6065 37.8411 18.2263 38.0234C17.8513 38.2057 17.5284 38.474 17.2576 38.8281C16.9919 39.1823 16.7862 39.6198 16.6404 40.1406C16.4945 40.6615 16.4216 41.2604 16.4216 41.9375V42.6719C16.4216 43.3542 16.4945 43.9583 16.6404 44.4844C16.7862 45.0052 16.9945 45.4453 17.2654 45.8047C17.5414 46.1589 17.8669 46.4271 18.2419 46.6094C18.6222 46.7917 19.0466 46.8828 19.5154 46.8828C20.005 46.8828 20.4399 46.7917 20.8201 46.6094C21.2003 46.4271 21.5206 46.1589 21.781 45.8047C22.0466 45.4453 22.2472 45.0052 22.3826 44.4844C22.518 43.9583 22.5857 43.3542 22.5857 42.6719ZM30.3201 36.625V48H28.8357V36.625H30.3201ZM33.9763 36.625V37.8594H25.1873V36.625H33.9763ZM43.6951 36.5625V48H42.2498V38.3672L39.3357 39.4297V38.125L43.4685 36.5625H43.6951ZM59.3435 36.625V37.8594H53.8591V48H52.3591V36.625H59.3435ZM69.4216 41.9531V42.6719C69.4216 43.526 69.3149 44.2917 69.1013 44.9688C68.8878 45.6458 68.5805 46.2214 68.1794 46.6953C67.7784 47.1693 67.2966 47.5312 66.7341 47.7812C66.1768 48.0312 65.5518 48.1562 64.8591 48.1562C64.1873 48.1562 63.5701 48.0312 63.0076 47.7812C62.4503 47.5312 61.9659 47.1693 61.5544 46.6953C61.1482 46.2214 60.8331 45.6458 60.6091 44.9688C60.3852 44.2917 60.2732 43.526 60.2732 42.6719V41.9531C60.2732 41.099 60.3826 40.3359 60.6013 39.6641C60.8253 38.987 61.1404 38.4115 61.5466 37.9375C61.9529 37.4583 62.4347 37.0938 62.9919 36.8438C63.5544 36.5938 64.1716 36.4688 64.8435 36.4688C65.5362 36.4688 66.1612 36.5938 66.7185 36.8438C67.281 37.0938 67.7628 37.4583 68.1638 37.9375C68.5701 38.4115 68.88 38.987 69.0935 39.6641C69.3123 40.3359 69.4216 41.099 69.4216 41.9531ZM67.9294 42.6719V41.9375C67.9294 41.2604 67.8591 40.6615 67.7185 40.1406C67.5831 39.6198 67.3826 39.1823 67.1169 38.8281C66.8513 38.474 66.5258 38.2057 66.1404 38.0234C65.7602 37.8411 65.3279 37.75 64.8435 37.75C64.3748 37.75 63.9503 37.8411 63.5701 38.0234C63.1951 38.2057 62.8722 38.474 62.6013 38.8281C62.3357 39.1823 62.13 39.6198 61.9841 40.1406C61.8383 40.6615 61.7654 41.2604 61.7654 41.9375V42.6719C61.7654 43.3542 61.8383 43.9583 61.9841 44.4844C62.13 45.0052 62.3383 45.4453 62.6091 45.8047C62.8852 46.1589 63.2107 46.4271 63.5857 46.6094C63.9659 46.7917 64.3904 46.8828 64.8591 46.8828C65.3487 46.8828 65.7836 46.7917 66.1638 46.6094C66.544 46.4271 66.8643 46.1589 67.1248 45.8047C67.3904 45.4453 67.5909 45.0052 67.7263 44.4844C67.8617 43.9583 67.9294 43.3542 67.9294 42.6719ZM80.3591 46.7734V48H71.7498V46.7734H80.3591ZM71.9919 46.7734V50.7969H70.4998L70.4919 46.7734H71.9919ZM81.6716 46.7734L81.656 50.7891H80.1638V46.7734H81.6716ZM78.8826 36.625V37.8594H73.8982V36.625H78.8826ZM80.1794 36.625V48H78.6794V36.625H80.1794ZM73.3826 36.625H74.8904L74.656 41.2031C74.6248 41.8906 74.5597 42.526 74.4607 43.1094C74.3617 43.6875 74.2393 44.2161 74.0935 44.6953C73.9477 45.1745 73.781 45.6042 73.5935 45.9844C73.406 46.3594 73.2055 46.6849 72.9919 46.9609C72.7784 47.2318 72.5544 47.4557 72.3201 47.6328C72.0909 47.8047 71.8591 47.9271 71.6248 48H70.9373V46.7734H71.4216C71.557 46.6276 71.7107 46.4167 71.8826 46.1406C72.0597 45.8646 72.2341 45.5078 72.406 45.0703C72.5831 44.6276 72.7367 44.0885 72.8669 43.4531C73.0024 42.8177 73.0935 42.0677 73.1404 41.2031L73.3826 36.625ZM87.781 37.6328L84.0154 48H82.4763L86.8123 36.625H87.8044L87.781 37.6328ZM90.9373 48L87.1638 37.6328L87.1404 36.625H88.1326L92.4841 48H90.9373ZM90.7419 43.7891V45.0234H84.3513V43.7891H90.7419Z" fill="#1A1812"/>
<path d="M20.7622 134.18V142H20.1069V134.749H15.6758V142H15.0151V134.18H20.7622ZM23.2651 137.306V144.234H22.6206V136.188H23.2222L23.2651 137.306ZM27.3042 139.041V139.153C27.3042 139.587 27.2541 139.984 27.1538 140.346C27.0535 140.707 26.9085 141.021 26.7188 141.286C26.5326 141.547 26.3016 141.749 26.0259 141.893C25.7502 142.036 25.4368 142.107 25.0859 142.107C24.7386 142.107 24.4289 142.054 24.1567 141.946C23.8846 141.839 23.6501 141.687 23.4531 141.49C23.2598 141.289 23.104 141.056 22.9858 140.792C22.8713 140.523 22.7907 140.229 22.7441 139.911V138.423C22.7979 138.072 22.8856 137.753 23.0073 137.467C23.1291 137.18 23.2848 136.933 23.4746 136.726C23.668 136.518 23.8971 136.359 24.1621 136.248C24.4271 136.137 24.7297 136.081 25.0698 136.081C25.4243 136.081 25.7394 136.151 26.0151 136.291C26.2944 136.427 26.529 136.625 26.7188 136.887C26.9121 137.145 27.0571 137.456 27.1538 137.821C27.2541 138.183 27.3042 138.589 27.3042 139.041ZM26.6597 139.153V139.041C26.6597 138.7 26.6239 138.385 26.5522 138.095C26.4842 137.805 26.3786 137.553 26.2354 137.338C26.0957 137.119 25.9167 136.949 25.6982 136.828C25.4834 136.706 25.2274 136.645 24.9302 136.645C24.6222 136.645 24.359 136.697 24.1406 136.801C23.9258 136.901 23.7467 137.035 23.6035 137.204C23.4603 137.368 23.3475 137.549 23.2651 137.746C23.1828 137.943 23.1219 138.136 23.0825 138.326V140.04C23.1506 140.312 23.2598 140.564 23.4102 140.797C23.5605 141.026 23.7611 141.21 24.0117 141.35C24.266 141.486 24.5757 141.554 24.9409 141.554C25.2345 141.554 25.4888 141.493 25.7036 141.372C25.9185 141.25 26.0957 141.08 26.2354 140.861C26.3786 140.643 26.4842 140.389 26.5522 140.099C26.6239 139.809 26.6597 139.493 26.6597 139.153ZM30.978 142.107C30.5985 142.107 30.2493 142.038 29.9307 141.898C29.6156 141.758 29.3398 141.561 29.1035 141.307C28.8708 141.053 28.6899 140.752 28.561 140.405C28.4357 140.054 28.373 139.671 28.373 139.255V139.024C28.373 138.577 28.4393 138.172 28.5718 137.811C28.7043 137.449 28.8869 137.139 29.1196 136.881C29.3524 136.624 29.6174 136.427 29.9146 136.291C30.2153 136.151 30.5304 136.081 30.8599 136.081C31.2287 136.081 31.5563 136.147 31.8428 136.28C32.1292 136.409 32.3691 136.593 32.5625 136.833C32.7594 137.069 32.908 137.35 33.0083 137.676C33.1086 137.999 33.1587 138.355 33.1587 138.745V139.137H28.7598V138.589H32.5195V138.514C32.5124 138.188 32.4461 137.884 32.3208 137.601C32.1991 137.315 32.0164 137.082 31.7729 136.903C31.5295 136.724 31.2251 136.634 30.8599 136.634C30.5877 136.634 30.3371 136.692 30.1079 136.806C29.8823 136.921 29.6872 137.085 29.5225 137.3C29.3613 137.512 29.236 137.764 29.1465 138.058C29.0605 138.348 29.0176 138.67 29.0176 139.024V139.255C29.0176 139.578 29.0641 139.878 29.1572 140.158C29.2539 140.433 29.39 140.677 29.5654 140.888C29.7445 141.099 29.9557 141.264 30.1992 141.382C30.4427 141.5 30.7113 141.56 31.0049 141.56C31.3486 141.56 31.653 141.497 31.918 141.372C32.1829 141.243 32.4211 141.04 32.6323 140.765L33.0352 141.076C32.9098 141.262 32.7523 141.434 32.5625 141.592C32.3763 141.749 32.1525 141.875 31.8911 141.968C31.6297 142.061 31.3254 142.107 30.978 142.107ZM35.4575 136.188H36.0967L36 138.283C35.9749 138.842 35.9123 139.327 35.812 139.739C35.7153 140.147 35.5954 140.496 35.4521 140.786C35.3089 141.073 35.1514 141.314 34.9795 141.511C34.8112 141.705 34.6393 141.868 34.4639 142H34.1147L34.1255 141.452L34.2866 141.447C34.3905 141.321 34.4979 141.18 34.6089 141.022C34.7235 140.861 34.8327 140.664 34.9365 140.432C35.0404 140.199 35.1299 139.909 35.2051 139.562C35.2803 139.214 35.3304 138.788 35.3555 138.283L35.4575 136.188ZM35.667 136.188H38.8843V142H38.2451V136.79H35.667V136.188ZM33.8677 141.447H39.4912V143.708H38.8467V142H34.48V143.708H33.8677V141.447ZM40.3774 139.186V139.008C40.3774 138.586 40.4383 138.195 40.5601 137.837C40.6818 137.479 40.8555 137.17 41.0811 136.908C41.3102 136.647 41.5841 136.444 41.9028 136.301C42.2215 136.154 42.576 136.081 42.9663 136.081C43.3602 136.081 43.7165 136.154 44.0352 136.301C44.3538 136.444 44.6278 136.647 44.8569 136.908C45.0861 137.17 45.2616 137.479 45.3833 137.837C45.505 138.195 45.5659 138.586 45.5659 139.008V139.186C45.5659 139.608 45.505 139.998 45.3833 140.356C45.2616 140.711 45.0861 141.019 44.8569 141.28C44.6313 141.542 44.3592 141.746 44.0405 141.893C43.7218 142.036 43.3674 142.107 42.9771 142.107C42.5832 142.107 42.2269 142.036 41.9082 141.893C41.5895 141.746 41.3156 141.542 41.0864 141.28C40.8573 141.019 40.6818 140.711 40.5601 140.356C40.4383 139.998 40.3774 139.608 40.3774 139.186ZM41.0166 139.008V139.186C41.0166 139.504 41.0596 139.807 41.1455 140.093C41.2314 140.376 41.3568 140.629 41.5215 140.851C41.6862 141.069 41.8903 141.241 42.1338 141.366C42.3773 141.492 42.6584 141.554 42.9771 141.554C43.2922 141.554 43.5697 141.492 43.8096 141.366C44.0531 141.241 44.2572 141.069 44.4219 140.851C44.5866 140.629 44.7101 140.376 44.7925 140.093C44.8784 139.807 44.9214 139.504 44.9214 139.186V139.008C44.9214 138.693 44.8784 138.394 44.7925 138.111C44.7101 137.828 44.5848 137.576 44.4165 137.354C44.2518 137.132 44.0477 136.957 43.8042 136.828C43.5607 136.699 43.2814 136.634 42.9663 136.634C42.6512 136.634 42.3719 136.699 42.1284 136.828C41.8885 136.957 41.6844 137.132 41.5161 137.354C41.3514 137.576 41.2261 137.828 41.1401 138.111C41.0578 138.394 41.0166 138.693 41.0166 139.008ZM49.041 141.554C49.3132 141.554 49.5674 141.504 49.8037 141.404C50.0436 141.3 50.2406 141.148 50.3945 140.947C50.5521 140.743 50.6416 140.494 50.6631 140.201H51.2754C51.2575 140.569 51.1447 140.899 50.937 141.189C50.7329 141.475 50.4644 141.701 50.1313 141.866C49.8019 142.027 49.4385 142.107 49.041 142.107C48.6364 142.107 48.2783 142.034 47.9668 141.887C47.6589 141.74 47.401 141.536 47.1934 141.275C46.9857 141.01 46.8281 140.702 46.7207 140.351C46.6169 139.997 46.5649 139.615 46.5649 139.207V138.981C46.5649 138.573 46.6169 138.194 46.7207 137.843C46.8281 137.488 46.9857 137.18 47.1934 136.919C47.401 136.654 47.6589 136.448 47.9668 136.301C48.2747 136.154 48.631 136.081 49.0356 136.081C49.451 136.081 49.8234 136.165 50.1528 136.333C50.4858 136.502 50.7508 136.74 50.9478 137.048C51.1483 137.356 51.2575 137.721 51.2754 138.144H50.6631C50.6452 137.832 50.5628 137.563 50.416 137.338C50.2692 137.112 50.0758 136.939 49.8359 136.817C49.596 136.695 49.3293 136.634 49.0356 136.634C48.7062 136.634 48.4251 136.699 48.1924 136.828C47.9596 136.953 47.7699 137.127 47.623 137.349C47.4798 137.567 47.3742 137.818 47.3062 138.101C47.2381 138.38 47.2041 138.674 47.2041 138.981V139.207C47.2041 139.519 47.2363 139.816 47.3008 140.099C47.3688 140.378 47.4744 140.627 47.6177 140.845C47.7645 141.064 47.9543 141.237 48.187 141.366C48.4233 141.492 48.708 141.554 49.041 141.554ZM54.6216 136.188V142H53.9824V136.188H54.6216ZM56.7378 136.188V136.736H51.9414V136.188H56.7378ZM61.2495 140.958V137.961C61.2495 137.685 61.1922 137.447 61.0776 137.247C60.9631 137.046 60.7948 136.892 60.5728 136.785C60.3507 136.677 60.0768 136.624 59.751 136.624C59.4502 136.624 59.1816 136.677 58.9453 136.785C58.7126 136.889 58.5282 137.03 58.3921 137.209C58.2596 137.384 58.1934 137.58 58.1934 137.794L57.5488 137.789C57.5488 137.571 57.6025 137.359 57.71 137.155C57.8174 136.951 57.9696 136.769 58.1665 136.607C58.3634 136.446 58.598 136.319 58.8701 136.226C59.1458 136.129 59.4484 136.081 59.7778 136.081C60.1932 136.081 60.5584 136.151 60.8735 136.291C61.1922 136.43 61.4411 136.64 61.6201 136.919C61.7992 137.198 61.8887 137.549 61.8887 137.972V140.781C61.8887 140.981 61.903 141.189 61.9316 141.404C61.9639 141.619 62.0086 141.796 62.0659 141.936V142H61.3838C61.3408 141.871 61.3068 141.71 61.2817 141.517C61.2603 141.32 61.2495 141.133 61.2495 140.958ZM61.3999 138.616L61.4106 139.11H60.1484C59.819 139.11 59.5236 139.141 59.2622 139.202C59.0044 139.259 58.786 139.345 58.6069 139.459C58.4279 139.57 58.29 139.705 58.1934 139.862C58.1003 140.02 58.0537 140.199 58.0537 140.399C58.0537 140.607 58.1056 140.797 58.2095 140.969C58.3169 141.141 58.4673 141.278 58.6606 141.382C58.8576 141.483 59.0903 141.533 59.3589 141.533C59.717 141.533 60.0321 141.466 60.3042 141.334C60.5799 141.201 60.8073 141.028 60.9863 140.813C61.1654 140.598 61.2853 140.364 61.3462 140.109L61.6255 140.48C61.5789 140.659 61.493 140.843 61.3677 141.033C61.2459 141.219 61.0866 141.395 60.8896 141.56C60.6927 141.721 60.46 141.853 60.1914 141.957C59.9264 142.057 59.6257 142.107 59.2891 142.107C58.9095 142.107 58.5783 142.036 58.2954 141.893C58.0161 141.749 57.7977 141.554 57.6401 141.307C57.4862 141.056 57.4092 140.774 57.4092 140.458C57.4092 140.172 57.4701 139.916 57.5918 139.69C57.7135 139.461 57.889 139.268 58.1182 139.11C58.3509 138.949 58.6302 138.827 58.9561 138.745C59.2855 138.659 59.6543 138.616 60.0625 138.616H61.3999ZM66.1802 139.32H64.1392L64.1284 138.783H65.8687C66.2196 138.783 66.5114 138.745 66.7441 138.67C66.9805 138.591 67.1577 138.475 67.2759 138.321C67.3976 138.167 67.4585 137.977 67.4585 137.751C67.4585 137.58 67.4227 137.429 67.3511 137.3C67.283 137.171 67.1792 137.066 67.0396 136.983C66.9035 136.901 66.7316 136.84 66.5239 136.801C66.3198 136.758 66.0817 136.736 65.8096 136.736H64.3218V142H63.6826V136.188H65.8096C66.1641 136.188 66.481 136.221 66.7603 136.285C67.0431 136.346 67.2848 136.439 67.4854 136.564C67.6859 136.69 67.8381 136.851 67.9419 137.048C68.0493 137.241 68.103 137.47 68.103 137.735C68.103 137.914 68.069 138.083 68.001 138.24C67.9329 138.394 67.8327 138.534 67.7002 138.659C67.5713 138.781 67.4119 138.881 67.2222 138.96C67.0324 139.035 66.814 139.082 66.5669 139.1L66.1802 139.32ZM66.1802 142H63.9404L64.1875 141.452H66.1802C66.5024 141.452 66.7764 141.411 67.002 141.329C67.2275 141.246 67.3976 141.125 67.5122 140.963C67.6304 140.802 67.6895 140.607 67.6895 140.378C67.6895 140.163 67.6304 139.977 67.5122 139.819C67.3976 139.662 67.2275 139.54 67.002 139.454C66.7764 139.365 66.5024 139.32 66.1802 139.32H64.6978L64.7085 138.783H66.6152L66.8892 138.987C67.1828 139.012 67.437 139.091 67.6519 139.223C67.8667 139.356 68.0332 139.524 68.1514 139.728C68.2695 139.929 68.3286 140.149 68.3286 140.389C68.3286 140.654 68.2785 140.888 68.1782 141.092C68.078 141.293 67.9329 141.461 67.7432 141.597C67.557 141.73 67.3314 141.83 67.0664 141.898C66.8014 141.966 66.506 142 66.1802 142ZM73.7104 136.188V136.747H70.7671V136.188H73.7104ZM74.2314 136.188V142H73.5923V136.188H74.2314ZM70.5952 136.188H71.2344L71.1055 138.912C71.084 139.352 71.0482 139.742 70.998 140.083C70.9515 140.423 70.887 140.715 70.8047 140.958C70.7223 141.198 70.6167 141.395 70.4878 141.549C70.3625 141.703 70.2103 141.817 70.0312 141.893C69.8522 141.964 69.6427 142 69.4028 142H69.1611V141.42L69.3599 141.415C69.5138 141.407 69.6481 141.375 69.7627 141.318C69.8809 141.261 69.9811 141.169 70.0635 141.044C70.1494 140.919 70.2192 140.754 70.2729 140.55C70.3302 140.346 70.375 140.097 70.4072 139.803C70.443 139.506 70.4699 139.157 70.4878 138.756L70.5952 136.188ZM77.2339 139.336H77.9429L76.3315 142H75.6226L77.2339 139.336ZM77.916 136.188H80.1987V142H79.5596V136.736H77.916C77.5758 136.736 77.2983 136.794 77.0835 136.908C76.8722 137.019 76.7165 137.166 76.6162 137.349C76.5195 137.531 76.4712 137.726 76.4712 137.934C76.4712 138.131 76.5142 138.319 76.6001 138.498C76.6896 138.677 76.8275 138.824 77.0137 138.938C77.1999 139.049 77.4416 139.105 77.7388 139.105H79.7905V139.658H77.7388C77.4344 139.658 77.1641 139.615 76.9277 139.529C76.6914 139.443 76.4909 139.323 76.3262 139.169C76.165 139.012 76.0415 138.827 75.9556 138.616C75.8732 138.401 75.832 138.17 75.832 137.923C75.832 137.673 75.8768 137.444 75.9663 137.236C76.0594 137.025 76.1937 136.84 76.3691 136.683C76.5482 136.525 76.7666 136.403 77.0244 136.317C77.2858 136.231 77.583 136.188 77.916 136.188ZM84.1841 142.107C83.8045 142.107 83.4554 142.038 83.1367 141.898C82.8216 141.758 82.5459 141.561 82.3096 141.307C82.0768 141.053 81.896 140.752 81.7671 140.405C81.6418 140.054 81.5791 139.671 81.5791 139.255V139.024C81.5791 138.577 81.6453 138.172 81.7778 137.811C81.9103 137.449 82.0929 137.139 82.3257 136.881C82.5584 136.624 82.8234 136.427 83.1206 136.291C83.4214 136.151 83.7365 136.081 84.0659 136.081C84.4347 136.081 84.7624 136.147 85.0488 136.28C85.3353 136.409 85.5752 136.593 85.7686 136.833C85.9655 137.069 86.1141 137.35 86.2144 137.676C86.3146 137.999 86.3647 138.355 86.3647 138.745V139.137H81.9658V138.589H85.7256V138.514C85.7184 138.188 85.6522 137.884 85.5269 137.601C85.4051 137.315 85.2225 137.082 84.979 136.903C84.7355 136.724 84.4312 136.634 84.0659 136.634C83.7938 136.634 83.5431 136.692 83.314 136.806C83.0884 136.921 82.8932 137.085 82.7285 137.3C82.5674 137.512 82.4421 137.764 82.3525 138.058C82.2666 138.348 82.2236 138.67 82.2236 139.024V139.255C82.2236 139.578 82.2702 139.878 82.3633 140.158C82.46 140.433 82.596 140.677 82.7715 140.888C82.9505 141.099 83.1618 141.264 83.4053 141.382C83.6488 141.5 83.9173 141.56 84.2109 141.56C84.5547 141.56 84.859 141.497 85.124 141.372C85.389 141.243 85.6271 141.04 85.8384 140.765L86.2412 141.076C86.1159 141.262 85.9583 141.434 85.7686 141.592C85.5824 141.749 85.3586 141.875 85.0972 141.968C84.8358 142.061 84.5314 142.107 84.1841 142.107ZM90.8442 141.119L93.1538 136.188H93.793L91.0698 142H90.6187L87.9009 136.188H88.54L90.8442 141.119ZM88.3413 136.188V142H87.7021V136.188H88.3413ZM93.3042 142V136.188H93.9487V142H93.3042ZM101.984 136.188V136.747H99.0405V142H98.4014V136.188H101.984ZM106.539 140.958V137.961C106.539 137.685 106.481 137.447 106.367 137.247C106.252 137.046 106.084 136.892 105.862 136.785C105.64 136.677 105.366 136.624 105.04 136.624C104.739 136.624 104.471 136.677 104.234 136.785C104.002 136.889 103.817 137.03 103.681 137.209C103.549 137.384 103.482 137.58 103.482 137.794L102.838 137.789C102.838 137.571 102.892 137.359 102.999 137.155C103.106 136.951 103.259 136.769 103.456 136.607C103.653 136.446 103.887 136.319 104.159 136.226C104.435 136.129 104.737 136.081 105.067 136.081C105.482 136.081 105.847 136.151 106.163 136.291C106.481 136.43 106.73 136.64 106.909 136.919C107.088 137.198 107.178 137.549 107.178 137.972V140.781C107.178 140.981 107.192 141.189 107.221 141.404C107.253 141.619 107.298 141.796 107.355 141.936V142H106.673C106.63 141.871 106.596 141.71 106.571 141.517C106.549 141.32 106.539 141.133 106.539 140.958ZM106.689 138.616L106.7 139.11H105.438C105.108 139.11 104.813 139.141 104.551 139.202C104.293 139.259 104.075 139.345 103.896 139.459C103.717 139.57 103.579 139.705 103.482 139.862C103.389 140.02 103.343 140.199 103.343 140.399C103.343 140.607 103.395 140.797 103.499 140.969C103.606 141.141 103.756 141.278 103.95 141.382C104.147 141.483 104.379 141.533 104.648 141.533C105.006 141.533 105.321 141.466 105.593 141.334C105.869 141.201 106.096 141.028 106.275 140.813C106.454 140.598 106.574 140.364 106.635 140.109L106.915 140.48C106.868 140.659 106.782 140.843 106.657 141.033C106.535 141.219 106.376 141.395 106.179 141.56C105.982 141.721 105.749 141.853 105.48 141.957C105.215 142.057 104.915 142.107 104.578 142.107C104.199 142.107 103.867 142.036 103.584 141.893C103.305 141.749 103.087 141.554 102.929 141.307C102.775 141.056 102.698 140.774 102.698 140.458C102.698 140.172 102.759 139.916 102.881 139.69C103.003 139.461 103.178 139.268 103.407 139.11C103.64 138.949 103.919 138.827 104.245 138.745C104.575 138.659 104.943 138.616 105.352 138.616H106.689ZM109.536 137.306V144.234H108.891V136.188H109.493L109.536 137.306ZM113.575 139.041V139.153C113.575 139.587 113.525 139.984 113.424 140.346C113.324 140.707 113.179 141.021 112.989 141.286C112.803 141.547 112.572 141.749 112.296 141.893C112.021 142.036 111.707 142.107 111.356 142.107C111.009 142.107 110.699 142.054 110.427 141.946C110.155 141.839 109.921 141.687 109.724 141.49C109.53 141.289 109.375 141.056 109.256 140.792C109.142 140.523 109.061 140.229 109.015 139.911V138.423C109.068 138.072 109.156 137.753 109.278 137.467C109.4 137.18 109.555 136.933 109.745 136.726C109.938 136.518 110.168 136.359 110.433 136.248C110.698 136.137 111 136.081 111.34 136.081C111.695 136.081 112.01 136.151 112.286 136.291C112.565 136.427 112.799 136.625 112.989 136.887C113.183 137.145 113.328 137.456 113.424 137.821C113.525 138.183 113.575 138.589 113.575 139.041ZM112.93 139.153V139.041C112.93 138.7 112.894 138.385 112.823 138.095C112.755 137.805 112.649 137.553 112.506 137.338C112.366 137.119 112.187 136.949 111.969 136.828C111.754 136.706 111.498 136.645 111.201 136.645C110.893 136.645 110.63 136.697 110.411 136.801C110.196 136.901 110.017 137.035 109.874 137.204C109.731 137.368 109.618 137.549 109.536 137.746C109.453 137.943 109.392 138.136 109.353 138.326V140.04C109.421 140.312 109.53 140.564 109.681 140.797C109.831 141.026 110.032 141.21 110.282 141.35C110.536 141.486 110.846 141.554 111.211 141.554C111.505 141.554 111.759 141.493 111.974 141.372C112.189 141.25 112.366 141.08 112.506 140.861C112.649 140.643 112.755 140.389 112.823 140.099C112.894 139.809 112.93 139.493 112.93 139.153ZM118.538 140.958V137.961C118.538 137.685 118.48 137.447 118.366 137.247C118.251 137.046 118.083 136.892 117.861 136.785C117.639 136.677 117.365 136.624 117.039 136.624C116.738 136.624 116.47 136.677 116.233 136.785C116.001 136.889 115.816 137.03 115.68 137.209C115.548 137.384 115.481 137.58 115.481 137.794L114.837 137.789C114.837 137.571 114.891 137.359 114.998 137.155C115.105 136.951 115.258 136.769 115.455 136.607C115.652 136.446 115.886 136.319 116.158 136.226C116.434 136.129 116.736 136.081 117.066 136.081C117.481 136.081 117.847 136.151 118.162 136.291C118.48 136.43 118.729 136.64 118.908 136.919C119.087 137.198 119.177 137.549 119.177 137.972V140.781C119.177 140.981 119.191 141.189 119.22 141.404C119.252 141.619 119.297 141.796 119.354 141.936V142H118.672C118.629 141.871 118.595 141.71 118.57 141.517C118.548 141.32 118.538 141.133 118.538 140.958ZM118.688 138.616L118.699 139.11H117.437C117.107 139.11 116.812 139.141 116.55 139.202C116.292 139.259 116.074 139.345 115.895 139.459C115.716 139.57 115.578 139.705 115.481 139.862C115.388 140.02 115.342 140.199 115.342 140.399C115.342 140.607 115.394 140.797 115.498 140.969C115.605 141.141 115.755 141.278 115.949 141.382C116.146 141.483 116.378 141.533 116.647 141.533C117.005 141.533 117.32 141.466 117.592 141.334C117.868 141.201 118.095 141.028 118.274 140.813C118.453 140.598 118.573 140.364 118.634 140.109L118.914 140.48C118.867 140.659 118.781 140.843 118.656 141.033C118.534 141.219 118.375 141.395 118.178 141.56C117.981 141.721 117.748 141.853 117.479 141.957C117.215 142.057 116.914 142.107 116.577 142.107C116.198 142.107 115.866 142.036 115.583 141.893C115.304 141.749 115.086 141.554 114.928 141.307C114.774 141.056 114.697 140.774 114.697 140.458C114.697 140.172 114.758 139.916 114.88 139.69C115.002 139.461 115.177 139.268 115.406 139.11C115.639 138.949 115.918 138.827 116.244 138.745C116.574 138.659 116.942 138.616 117.351 138.616H118.688ZM124.865 138.788V139.336H121.417V138.788H124.865ZM121.583 136.188V142H120.944V136.188H121.583ZM125.359 136.188V142H124.714V136.188H125.359ZM129.14 136.188V142H128.501V136.188H129.14ZM131.256 136.188V136.736H126.46V136.188H131.256ZM132.997 140.958L136.139 136.188H136.783V142H136.139V137.23L132.997 142H132.363V136.188H132.997V140.958ZM141.381 138.831V139.379H138.663V138.831H141.381ZM139.216 136.188V142H138.577V136.188H139.216ZM140.865 139.186V139.008C140.865 138.586 140.926 138.195 141.048 137.837C141.17 137.479 141.343 137.17 141.569 136.908C141.798 136.647 142.072 136.444 142.391 136.301C142.709 136.154 143.064 136.081 143.454 136.081C143.848 136.081 144.204 136.154 144.523 136.301C144.842 136.444 145.116 136.647 145.345 136.908C145.574 137.17 145.749 137.479 145.871 137.837C145.993 138.195 146.054 138.586 146.054 139.008V139.186C146.054 139.608 145.993 139.998 145.871 140.356C145.749 140.711 145.574 141.019 145.345 141.28C145.119 141.542 144.847 141.746 144.528 141.893C144.21 142.036 143.855 142.107 143.465 142.107C143.071 142.107 142.715 142.036 142.396 141.893C142.077 141.746 141.803 141.542 141.574 141.28C141.345 141.019 141.17 140.711 141.048 140.356C140.926 139.998 140.865 139.608 140.865 139.186ZM141.51 139.008V139.186C141.51 139.504 141.551 139.807 141.633 140.093C141.719 140.376 141.845 140.629 142.009 140.851C142.178 141.069 142.382 141.241 142.622 141.366C142.865 141.492 143.146 141.554 143.465 141.554C143.78 141.554 144.057 141.492 144.297 141.366C144.541 141.241 144.745 141.069 144.91 140.851C145.074 140.629 145.2 140.376 145.286 140.093C145.372 139.807 145.415 139.504 145.415 139.186V139.008C145.415 138.693 145.372 138.394 145.286 138.111C145.2 137.828 145.073 137.576 144.904 137.354C144.74 137.132 144.535 136.957 144.292 136.828C144.049 136.699 143.769 136.634 143.454 136.634C143.139 136.634 142.861 136.699 142.622 136.828C142.382 136.957 142.178 137.132 142.009 137.354C141.845 137.576 141.719 137.828 141.633 138.111C141.551 138.394 141.51 138.693 141.51 139.008ZM154.105 138.788V139.336H150.657V138.788H154.105ZM150.823 136.188V142H150.184V136.188H150.823ZM154.599 136.188V142H153.955V136.188H154.599ZM159.863 140.958V137.961C159.863 137.685 159.806 137.447 159.691 137.247C159.576 137.046 159.408 136.892 159.186 136.785C158.964 136.677 158.69 136.624 158.364 136.624C158.063 136.624 157.795 136.677 157.559 136.785C157.326 136.889 157.141 137.03 157.005 137.209C156.873 137.384 156.807 137.58 156.807 137.794L156.162 137.789C156.162 137.571 156.216 137.359 156.323 137.155C156.431 136.951 156.583 136.769 156.78 136.607C156.977 136.446 157.211 136.319 157.483 136.226C157.759 136.129 158.062 136.081 158.391 136.081C158.806 136.081 159.172 136.151 159.487 136.291C159.806 136.43 160.054 136.64 160.233 136.919C160.412 137.198 160.502 137.549 160.502 137.972V140.781C160.502 140.981 160.516 141.189 160.545 141.404C160.577 141.619 160.622 141.796 160.679 141.936V142H159.997C159.954 141.871 159.92 141.71 159.895 141.517C159.874 141.32 159.863 141.133 159.863 140.958ZM160.013 138.616L160.024 139.11H158.762C158.432 139.11 158.137 139.141 157.875 139.202C157.618 139.259 157.399 139.345 157.22 139.459C157.041 139.57 156.903 139.705 156.807 139.862C156.714 140.02 156.667 140.199 156.667 140.399C156.667 140.607 156.719 140.797 156.823 140.969C156.93 141.141 157.081 141.278 157.274 141.382C157.471 141.483 157.704 141.533 157.972 141.533C158.33 141.533 158.645 141.466 158.917 141.334C159.193 141.201 159.421 141.028 159.6 140.813C159.779 140.598 159.899 140.364 159.959 140.109L160.239 140.48C160.192 140.659 160.106 140.843 159.981 141.033C159.859 141.219 159.7 141.395 159.503 141.56C159.306 141.721 159.073 141.853 158.805 141.957C158.54 142.057 158.239 142.107 157.902 142.107C157.523 142.107 157.192 142.036 156.909 141.893C156.629 141.749 156.411 141.554 156.253 141.307C156.099 141.056 156.022 140.774 156.022 140.458C156.022 140.172 156.083 139.916 156.205 139.69C156.327 139.461 156.502 139.268 156.731 139.11C156.964 138.949 157.243 138.827 157.569 138.745C157.899 138.659 158.268 138.616 158.676 138.616H160.013ZM168.124 141.119L170.433 136.188H171.072L168.349 142H167.898L165.18 136.188H165.819L168.124 141.119ZM165.621 136.188V142H164.981V136.188H165.621ZM170.583 142V136.188H171.228V142H170.583ZM175.203 142.107C174.823 142.107 174.474 142.038 174.155 141.898C173.84 141.758 173.564 141.561 173.328 141.307C173.095 141.053 172.915 140.752 172.786 140.405C172.66 140.054 172.598 139.671 172.598 139.255V139.024C172.598 138.577 172.664 138.172 172.796 137.811C172.929 137.449 173.111 137.139 173.344 136.881C173.577 136.624 173.842 136.427 174.139 136.291C174.44 136.151 174.755 136.081 175.084 136.081C175.453 136.081 175.781 136.147 176.067 136.28C176.354 136.409 176.594 136.593 176.787 136.833C176.984 137.069 177.133 137.35 177.233 137.676C177.333 137.999 177.383 138.355 177.383 138.745V139.137H172.984V138.589H176.744V138.514C176.737 138.188 176.671 137.884 176.545 137.601C176.424 137.315 176.241 137.082 175.998 136.903C175.754 136.724 175.45 136.634 175.084 136.634C174.812 136.634 174.562 136.692 174.333 136.806C174.107 136.921 173.912 137.085 173.747 137.3C173.586 137.512 173.461 137.764 173.371 138.058C173.285 138.348 173.242 138.67 173.242 139.024V139.255C173.242 139.578 173.289 139.878 173.382 140.158C173.479 140.433 173.615 140.677 173.79 140.888C173.969 141.099 174.18 141.264 174.424 141.382C174.667 141.5 174.936 141.56 175.229 141.56C175.573 141.56 175.878 141.497 176.143 141.372C176.408 141.243 176.646 141.04 176.857 140.765L177.26 141.076C177.134 141.262 176.977 141.434 176.787 141.592C176.601 141.749 176.377 141.875 176.116 141.968C175.854 142.061 175.55 142.107 175.203 142.107ZM182.421 133.659H182.975C182.975 133.927 182.926 134.151 182.83 134.33C182.736 134.509 182.604 134.654 182.432 134.765C182.26 134.876 182.058 134.964 181.825 135.028C181.596 135.089 181.345 135.141 181.073 135.184C180.74 135.234 180.434 135.343 180.155 135.512C179.879 135.68 179.643 135.911 179.446 136.205C179.249 136.495 179.1 136.854 179 137.284C178.903 137.71 178.864 138.21 178.882 138.783V139.282H178.329V138.783C178.329 138.153 178.389 137.594 178.511 137.107C178.637 136.616 178.814 136.197 179.043 135.85C179.276 135.503 179.551 135.227 179.87 135.023C180.192 134.815 180.549 134.679 180.939 134.615C181.304 134.557 181.594 134.488 181.809 134.405C182.028 134.323 182.183 134.221 182.276 134.099C182.373 133.977 182.421 133.831 182.421 133.659ZM180.993 136.57C181.372 136.57 181.714 136.634 182.019 136.763C182.323 136.892 182.583 137.075 182.797 137.311C183.016 137.544 183.182 137.819 183.297 138.138C183.415 138.453 183.474 138.799 183.474 139.175V139.347C183.474 139.748 183.413 140.117 183.292 140.453C183.173 140.79 183.001 141.082 182.776 141.329C182.554 141.576 182.284 141.767 181.965 141.903C181.65 142.039 181.297 142.107 180.907 142.107C180.513 142.107 180.158 142.039 179.843 141.903C179.528 141.767 179.258 141.576 179.032 141.329C178.807 141.082 178.633 140.79 178.511 140.453C178.389 140.117 178.329 139.748 178.329 139.347V139.175C178.329 139.071 178.339 138.969 178.361 138.869C178.386 138.768 178.416 138.67 178.452 138.573C178.488 138.473 178.524 138.375 178.56 138.278C178.685 137.952 178.862 137.662 179.091 137.408C179.32 137.15 179.594 136.946 179.913 136.795C180.235 136.645 180.595 136.57 180.993 136.57ZM180.896 137.118C180.477 137.118 180.124 137.214 179.838 137.408C179.555 137.597 179.34 137.85 179.193 138.165C179.047 138.477 178.973 138.813 178.973 139.175V139.347C178.973 139.644 179.014 139.925 179.097 140.19C179.179 140.455 179.301 140.691 179.462 140.899C179.627 141.103 179.829 141.264 180.069 141.382C180.309 141.5 180.588 141.56 180.907 141.56C181.222 141.56 181.499 141.5 181.739 141.382C181.979 141.264 182.18 141.103 182.341 140.899C182.502 140.691 182.624 140.455 182.706 140.19C182.788 139.925 182.83 139.644 182.83 139.347V139.175C182.83 138.903 182.788 138.643 182.706 138.396C182.624 138.149 182.5 137.931 182.335 137.741C182.174 137.547 181.972 137.395 181.729 137.284C181.489 137.173 181.211 137.118 180.896 137.118ZM186.955 142.107C186.575 142.107 186.226 142.038 185.907 141.898C185.592 141.758 185.316 141.561 185.08 141.307C184.847 141.053 184.667 140.752 184.538 140.405C184.412 140.054 184.35 139.671 184.35 139.255V139.024C184.35 138.577 184.416 138.172 184.548 137.811C184.681 137.449 184.863 137.139 185.096 136.881C185.329 136.624 185.594 136.427 185.891 136.291C186.192 136.151 186.507 136.081 186.836 136.081C187.205 136.081 187.533 136.147 187.819 136.28C188.106 136.409 188.346 136.593 188.539 136.833C188.736 137.069 188.885 137.35 188.985 137.676C189.085 137.999 189.135 138.355 189.135 138.745V139.137H184.736V138.589H188.496V138.514C188.489 138.188 188.423 137.884 188.297 137.601C188.176 137.315 187.993 137.082 187.75 136.903C187.506 136.724 187.202 136.634 186.836 136.634C186.564 136.634 186.314 136.692 186.084 136.806C185.859 136.921 185.664 137.085 185.499 137.3C185.338 137.512 185.213 137.764 185.123 138.058C185.037 138.348 184.994 138.67 184.994 139.024V139.255C184.994 139.578 185.041 139.878 185.134 140.158C185.23 140.433 185.367 140.677 185.542 140.888C185.721 141.099 185.932 141.264 186.176 141.382C186.419 141.5 186.688 141.56 186.981 141.56C187.325 141.56 187.63 141.497 187.895 141.372C188.16 141.243 188.398 141.04 188.609 140.765L189.012 141.076C188.886 141.262 188.729 141.434 188.539 141.592C188.353 141.749 188.129 141.875 187.868 141.968C187.606 142.061 187.302 142.107 186.955 142.107ZM194.345 136.188V136.747H191.402V136.188H194.345ZM194.866 136.188V142H194.227V136.188H194.866ZM191.23 136.188H191.869L191.74 138.912C191.719 139.352 191.683 139.742 191.633 140.083C191.586 140.423 191.522 140.715 191.439 140.958C191.357 141.198 191.251 141.395 191.123 141.549C190.997 141.703 190.845 141.817 190.666 141.893C190.487 141.964 190.278 142 190.038 142H189.796V141.42L189.995 141.415C190.149 141.407 190.283 141.375 190.397 141.318C190.516 141.261 190.616 141.169 190.698 141.044C190.784 140.919 190.854 140.754 190.908 140.55C190.965 140.346 191.01 140.097 191.042 139.803C191.078 139.506 191.105 139.157 191.123 138.756L191.23 136.188ZM197.079 138.294H198.975C199.433 138.294 199.82 138.375 200.135 138.536C200.45 138.693 200.688 138.912 200.85 139.191C201.014 139.47 201.097 139.785 201.097 140.136C201.097 140.401 201.05 140.648 200.957 140.877C200.868 141.103 200.731 141.3 200.549 141.468C200.37 141.637 200.148 141.767 199.883 141.86C199.621 141.953 199.319 142 198.975 142H196.671V136.188H197.31V141.447H198.975C199.33 141.447 199.616 141.386 199.834 141.264C200.053 141.139 200.21 140.978 200.307 140.781C200.407 140.584 200.458 140.374 200.458 140.152C200.458 139.934 200.407 139.726 200.307 139.529C200.21 139.329 200.053 139.166 199.834 139.041C199.616 138.912 199.33 138.847 198.975 138.847H197.079V138.294ZM204.819 139.186V139.008C204.819 138.586 204.88 138.195 205.001 137.837C205.123 137.479 205.297 137.17 205.522 136.908C205.752 136.647 206.026 136.444 206.344 136.301C206.663 136.154 207.017 136.081 207.408 136.081C207.802 136.081 208.158 136.154 208.477 136.301C208.795 136.444 209.069 136.647 209.298 136.908C209.528 137.17 209.703 137.479 209.825 137.837C209.946 138.195 210.007 138.586 210.007 139.008V139.186C210.007 139.608 209.946 139.998 209.825 140.356C209.703 140.711 209.528 141.019 209.298 141.28C209.073 141.542 208.801 141.746 208.482 141.893C208.163 142.036 207.809 142.107 207.418 142.107C207.025 142.107 206.668 142.036 206.35 141.893C206.031 141.746 205.757 141.542 205.528 141.28C205.299 141.019 205.123 140.711 205.001 140.356C204.88 139.998 204.819 139.608 204.819 139.186ZM205.458 139.008V139.186C205.458 139.504 205.501 139.807 205.587 140.093C205.673 140.376 205.798 140.629 205.963 140.851C206.128 141.069 206.332 141.241 206.575 141.366C206.819 141.492 207.1 141.554 207.418 141.554C207.734 141.554 208.011 141.492 208.251 141.366C208.494 141.241 208.699 141.069 208.863 140.851C209.028 140.629 209.152 140.376 209.234 140.093C209.32 139.807 209.363 139.504 209.363 139.186V139.008C209.363 138.693 209.32 138.394 209.234 138.111C209.152 137.828 209.026 137.576 208.858 137.354C208.693 137.132 208.489 136.957 208.246 136.828C208.002 136.699 207.723 136.634 207.408 136.634C207.093 136.634 206.813 136.699 206.57 136.828C206.33 136.957 206.126 137.132 205.958 137.354C205.793 137.576 205.667 137.828 205.582 138.111C205.499 138.394 205.458 138.693 205.458 139.008ZM213.273 136.188V142H212.634V136.188H213.273ZM215.389 136.188V136.736H210.593V136.188H215.389ZM222.022 134.147V142H221.383V134.958L219.256 135.748V135.141L221.915 134.147H222.022ZM231.545 136.188V136.747H228.602V142H227.963V136.188H231.545ZM232.104 139.186V139.008C232.104 138.586 232.165 138.195 232.287 137.837C232.408 137.479 232.582 137.17 232.808 136.908C233.037 136.647 233.311 136.444 233.629 136.301C233.948 136.154 234.303 136.081 234.693 136.081C235.087 136.081 235.443 136.154 235.762 136.301C236.08 136.444 236.354 136.647 236.583 136.908C236.813 137.17 236.988 137.479 237.11 137.837C237.232 138.195 237.292 138.586 237.292 139.008V139.186C237.292 139.608 237.232 139.998 237.11 140.356C236.988 140.711 236.813 141.019 236.583 141.28C236.358 141.542 236.086 141.746 235.767 141.893C235.448 142.036 235.094 142.107 234.704 142.107C234.31 142.107 233.953 142.036 233.635 141.893C233.316 141.746 233.042 141.542 232.813 141.28C232.584 141.019 232.408 140.711 232.287 140.356C232.165 139.998 232.104 139.608 232.104 139.186ZM232.743 139.008V139.186C232.743 139.504 232.786 139.807 232.872 140.093C232.958 140.376 233.083 140.629 233.248 140.851C233.413 141.069 233.617 141.241 233.86 141.366C234.104 141.492 234.385 141.554 234.704 141.554C235.019 141.554 235.296 141.492 235.536 141.366C235.78 141.241 235.984 141.069 236.148 140.851C236.313 140.629 236.437 140.376 236.519 140.093C236.605 139.807 236.648 139.504 236.648 139.186V139.008C236.648 138.693 236.605 138.394 236.519 138.111C236.437 137.828 236.311 137.576 236.143 137.354C235.978 137.132 235.774 136.957 235.531 136.828C235.287 136.699 235.008 136.634 234.693 136.634C234.378 136.634 234.098 136.699 233.855 136.828C233.615 136.957 233.411 137.132 233.243 137.354C233.078 137.576 232.953 137.828 232.867 138.111C232.784 138.394 232.743 138.693 232.743 139.008ZM239.269 136.188H239.908L239.812 138.283C239.786 138.842 239.724 139.327 239.624 139.739C239.527 140.147 239.407 140.496 239.264 140.786C239.12 141.073 238.963 141.314 238.791 141.511C238.623 141.705 238.451 141.868 238.275 142H237.926L237.937 141.452L238.098 141.447C238.202 141.321 238.309 141.18 238.42 141.022C238.535 140.861 238.644 140.664 238.748 140.432C238.852 140.199 238.941 139.909 239.017 139.562C239.092 139.214 239.142 138.788 239.167 138.283L239.269 136.188ZM239.479 136.188H242.696V142H242.057V136.79H239.479V136.188ZM237.679 141.447H243.303V143.708H242.658V142H238.292V143.708H237.679V141.447ZM248.078 140.958V137.961C248.078 137.685 248.02 137.447 247.906 137.247C247.791 137.046 247.623 136.892 247.401 136.785C247.179 136.677 246.905 136.624 246.579 136.624C246.278 136.624 246.01 136.677 245.773 136.785C245.541 136.889 245.356 137.03 245.22 137.209C245.088 137.384 245.021 137.58 245.021 137.794L244.377 137.789C244.377 137.571 244.431 137.359 244.538 137.155C244.646 136.951 244.798 136.769 244.995 136.607C245.192 136.446 245.426 136.319 245.698 136.226C245.974 136.129 246.277 136.081 246.606 136.081C247.021 136.081 247.387 136.151 247.702 136.291C248.02 136.43 248.269 136.64 248.448 136.919C248.627 137.198 248.717 137.549 248.717 137.972V140.781C248.717 140.981 248.731 141.189 248.76 141.404C248.792 141.619 248.837 141.796 248.894 141.936V142H248.212C248.169 141.871 248.135 141.71 248.11 141.517C248.088 141.32 248.078 141.133 248.078 140.958ZM248.228 138.616L248.239 139.11H246.977C246.647 139.11 246.352 139.141 246.09 139.202C245.833 139.259 245.614 139.345 245.435 139.459C245.256 139.57 245.118 139.705 245.021 139.862C244.928 140.02 244.882 140.199 244.882 140.399C244.882 140.607 244.934 140.797 245.038 140.969C245.145 141.141 245.295 141.278 245.489 141.382C245.686 141.483 245.918 141.533 246.187 141.533C246.545 141.533 246.86 141.466 247.132 141.334C247.408 141.201 247.635 141.028 247.814 140.813C247.993 140.598 248.113 140.364 248.174 140.109L248.454 140.48C248.407 140.659 248.321 140.843 248.196 141.033C248.074 141.219 247.915 141.395 247.718 141.56C247.521 141.721 247.288 141.853 247.02 141.957C246.755 142.057 246.454 142.107 246.117 142.107C245.738 142.107 245.406 142.036 245.124 141.893C244.844 141.749 244.626 141.554 244.468 141.307C244.314 141.056 244.237 140.774 244.237 140.458C244.237 140.172 244.298 139.916 244.42 139.69C244.542 139.461 244.717 139.268 244.946 139.11C245.179 138.949 245.458 138.827 245.784 138.745C246.114 138.659 246.482 138.616 246.891 138.616H248.228ZM15.52 153.958L18.6621 149.188H19.3066V155H18.6621V150.23L15.52 155H14.8862V149.188H15.52V153.958ZM27.6533 149.188V149.747H24.2534V149.188H27.6533ZM24.3984 149.188V155H23.7593V149.188H24.3984ZM28.1797 149.188V155H27.5352V149.188H28.1797ZM29.5493 152.186V152.008C29.5493 151.586 29.6102 151.195 29.7319 150.837C29.8537 150.479 30.0273 150.17 30.2529 149.908C30.4821 149.647 30.756 149.444 31.0747 149.301C31.3934 149.154 31.7479 149.081 32.1382 149.081C32.5321 149.081 32.8883 149.154 33.207 149.301C33.5257 149.444 33.7996 149.647 34.0288 149.908C34.258 150.17 34.4334 150.479 34.5552 150.837C34.6769 151.195 34.7378 151.586 34.7378 152.008V152.186C34.7378 152.608 34.6769 152.998 34.5552 153.356C34.4334 153.711 34.258 154.019 34.0288 154.28C33.8032 154.542 33.5311 154.746 33.2124 154.893C32.8937 155.036 32.5392 155.107 32.1489 155.107C31.755 155.107 31.3988 155.036 31.0801 154.893C30.7614 154.746 30.4875 154.542 30.2583 154.28C30.0291 154.019 29.8537 153.711 29.7319 153.356C29.6102 152.998 29.5493 152.608 29.5493 152.186ZM30.1885 152.008V152.186C30.1885 152.504 30.2314 152.807 30.3174 153.093C30.4033 153.376 30.5286 153.629 30.6934 153.851C30.8581 154.069 31.0622 154.241 31.3057 154.366C31.5492 154.492 31.8302 154.554 32.1489 154.554C32.464 154.554 32.7415 154.492 32.9814 154.366C33.2249 154.241 33.429 154.069 33.5938 153.851C33.7585 153.629 33.882 153.376 33.9644 153.093C34.0503 152.807 34.0933 152.504 34.0933 152.186V152.008C34.0933 151.693 34.0503 151.394 33.9644 151.111C33.882 150.828 33.7567 150.576 33.5884 150.354C33.4237 150.132 33.2196 149.957 32.9761 149.828C32.7326 149.699 32.4533 149.634 32.1382 149.634C31.8231 149.634 31.5438 149.699 31.3003 149.828C31.0604 149.957 30.8563 150.132 30.688 150.354C30.5233 150.576 30.3979 150.828 30.312 151.111C30.2297 151.394 30.1885 151.693 30.1885 152.008ZM38.2129 154.554C38.485 154.554 38.7393 154.504 38.9756 154.404C39.2155 154.3 39.4124 154.148 39.5664 153.947C39.724 153.743 39.8135 153.494 39.835 153.201H40.4473C40.4294 153.569 40.3166 153.899 40.1089 154.189C39.9048 154.475 39.6362 154.701 39.3032 154.866C38.9738 155.027 38.6104 155.107 38.2129 155.107C37.8083 155.107 37.4502 155.034 37.1387 154.887C36.8307 154.74 36.5729 154.536 36.3652 154.275C36.1576 154.01 36 153.702 35.8926 153.351C35.7887 152.997 35.7368 152.615 35.7368 152.207V151.981C35.7368 151.573 35.7887 151.194 35.8926 150.843C36 150.488 36.1576 150.18 36.3652 149.919C36.5729 149.654 36.8307 149.448 37.1387 149.301C37.4466 149.154 37.8029 149.081 38.2075 149.081C38.6229 149.081 38.9953 149.165 39.3247 149.333C39.6577 149.502 39.9227 149.74 40.1196 150.048C40.3201 150.356 40.4294 150.721 40.4473 151.144H39.835C39.8171 150.832 39.7347 150.563 39.5879 150.338C39.4411 150.112 39.2477 149.939 39.0078 149.817C38.7679 149.695 38.5011 149.634 38.2075 149.634C37.8781 149.634 37.597 149.699 37.3643 149.828C37.1315 149.953 36.9417 150.127 36.7949 150.349C36.6517 150.567 36.5461 150.818 36.478 151.101C36.41 151.38 36.376 151.674 36.376 151.981V152.207C36.376 152.519 36.4082 152.816 36.4727 153.099C36.5407 153.378 36.6463 153.627 36.7896 153.845C36.9364 154.064 37.1261 154.237 37.3589 154.366C37.5952 154.492 37.8799 154.554 38.2129 154.554ZM45.6841 149.188V149.747H42.7407V149.188H45.6841ZM46.2051 149.188V155H45.5659V149.188H46.2051ZM42.5688 149.188H43.208L43.0791 151.912C43.0576 152.352 43.0218 152.742 42.9717 153.083C42.9251 153.423 42.8607 153.715 42.7783 153.958C42.696 154.198 42.5903 154.395 42.4614 154.549C42.3361 154.703 42.1839 154.817 42.0049 154.893C41.8258 154.964 41.6164 155 41.3765 155H41.1348V154.42L41.3335 154.415C41.4875 154.407 41.6217 154.375 41.7363 154.318C41.8545 154.261 41.9548 154.169 42.0371 154.044C42.123 153.919 42.1929 153.754 42.2466 153.55C42.3039 153.346 42.3486 153.097 42.3809 152.803C42.4167 152.506 42.4435 152.157 42.4614 151.756L42.5688 149.188ZM50.1851 155.107C49.8055 155.107 49.4564 155.038 49.1377 154.898C48.8226 154.758 48.5469 154.561 48.3105 154.307C48.0778 154.053 47.897 153.752 47.7681 153.405C47.6427 153.054 47.5801 152.671 47.5801 152.255V152.024C47.5801 151.577 47.6463 151.172 47.7788 150.811C47.9113 150.449 48.0939 150.139 48.3267 149.881C48.5594 149.624 48.8244 149.427 49.1216 149.291C49.4224 149.151 49.7375 149.081 50.0669 149.081C50.4357 149.081 50.7633 149.147 51.0498 149.28C51.3363 149.409 51.5762 149.593 51.7695 149.833C51.9665 150.069 52.1151 150.35 52.2153 150.676C52.3156 150.999 52.3657 151.355 52.3657 151.745V152.137H47.9668V151.589H51.7266V151.514C51.7194 151.188 51.6532 150.884 51.5278 150.601C51.4061 150.315 51.2235 150.082 50.98 149.903C50.7365 149.724 50.4321 149.634 50.0669 149.634C49.7948 149.634 49.5441 149.692 49.3149 149.806C49.0894 149.921 48.8942 150.085 48.7295 150.3C48.5684 150.512 48.443 150.764 48.3535 151.058C48.2676 151.348 48.2246 151.67 48.2246 152.024V152.255C48.2246 152.578 48.2712 152.878 48.3643 153.158C48.4609 153.433 48.597 153.677 48.7725 153.888C48.9515 154.099 49.1628 154.264 49.4062 154.382C49.6497 154.5 49.9183 154.56 50.2119 154.56C50.5557 154.56 50.86 154.497 51.125 154.372C51.39 154.243 51.6281 154.04 51.8394 153.765L52.2422 154.076C52.1169 154.262 51.9593 154.434 51.7695 154.592C51.5833 154.749 51.3595 154.875 51.0981 154.968C50.8368 155.061 50.5324 155.107 50.1851 155.107ZM57.2534 149.188V149.747H54.3101V155H53.6709V149.188H57.2534ZM61.8081 153.958V150.961C61.8081 150.685 61.7508 150.447 61.6362 150.247C61.5216 150.046 61.3534 149.892 61.1313 149.785C60.9093 149.677 60.6354 149.624 60.3096 149.624C60.0088 149.624 59.7402 149.677 59.5039 149.785C59.2712 149.889 59.0868 150.03 58.9507 150.209C58.8182 150.384 58.752 150.58 58.752 150.794L58.1074 150.789C58.1074 150.571 58.1611 150.359 58.2686 150.155C58.376 149.951 58.5282 149.769 58.7251 149.607C58.922 149.446 59.1566 149.319 59.4287 149.226C59.7044 149.129 60.007 149.081 60.3364 149.081C60.7518 149.081 61.117 149.151 61.4321 149.291C61.7508 149.43 61.9997 149.64 62.1787 149.919C62.3577 150.198 62.4473 150.549 62.4473 150.972V153.781C62.4473 153.981 62.4616 154.189 62.4902 154.404C62.5225 154.619 62.5672 154.796 62.6245 154.936V155H61.9424C61.8994 154.871 61.8654 154.71 61.8403 154.517C61.8188 154.32 61.8081 154.133 61.8081 153.958ZM61.9585 151.616L61.9692 152.11H60.707C60.3776 152.11 60.0822 152.141 59.8208 152.202C59.563 152.259 59.3446 152.345 59.1655 152.459C58.9865 152.57 58.8486 152.705 58.752 152.862C58.6589 153.02 58.6123 153.199 58.6123 153.399C58.6123 153.607 58.6642 153.797 58.7681 153.969C58.8755 154.141 59.0259 154.278 59.2192 154.382C59.4162 154.483 59.6489 154.533 59.9175 154.533C60.2756 154.533 60.5907 154.466 60.8628 154.334C61.1385 154.201 61.3659 154.028 61.5449 153.813C61.724 153.598 61.8439 153.364 61.9048 153.109L62.1841 153.48C62.1375 153.659 62.0516 153.843 61.9263 154.033C61.8045 154.219 61.6452 154.395 61.4482 154.56C61.2513 154.721 61.0186 154.853 60.75 154.957C60.485 155.057 60.1842 155.107 59.8477 155.107C59.4681 155.107 59.1369 155.036 58.854 154.893C58.5747 154.749 58.3563 154.554 58.1987 154.307C58.0448 154.056 57.9678 153.774 57.9678 153.458C57.9678 153.172 58.0286 152.916 58.1504 152.69C58.2721 152.461 58.4476 152.268 58.6768 152.11C58.9095 151.949 59.1888 151.827 59.5146 151.745C59.8441 151.659 60.2129 151.616 60.6211 151.616H61.9585ZM64.8052 150.306V157.234H64.1606V149.188H64.7622L64.8052 150.306ZM68.8442 152.041V152.153C68.8442 152.587 68.7941 152.984 68.6938 153.346C68.5936 153.707 68.4486 154.021 68.2588 154.286C68.0726 154.547 67.8416 154.749 67.5659 154.893C67.2902 155.036 66.9769 155.107 66.626 155.107C66.2786 155.107 65.9689 155.054 65.6968 154.946C65.4246 154.839 65.1901 154.687 64.9932 154.49C64.7998 154.289 64.644 154.056 64.5259 153.792C64.4113 153.523 64.3307 153.229 64.2842 152.911V151.423C64.3379 151.072 64.4256 150.753 64.5474 150.467C64.6691 150.18 64.8249 149.933 65.0146 149.726C65.208 149.518 65.4372 149.359 65.7021 149.248C65.9671 149.137 66.2697 149.081 66.6099 149.081C66.9644 149.081 67.2795 149.151 67.5552 149.291C67.8345 149.427 68.069 149.625 68.2588 149.887C68.4521 150.145 68.5972 150.456 68.6938 150.821C68.7941 151.183 68.8442 151.589 68.8442 152.041ZM68.1997 152.153V152.041C68.1997 151.7 68.1639 151.385 68.0923 151.095C68.0243 150.805 67.9186 150.553 67.7754 150.338C67.6357 150.119 67.4567 149.949 67.2383 149.828C67.0234 149.706 66.7674 149.645 66.4702 149.645C66.1623 149.645 65.8991 149.697 65.6807 149.801C65.4658 149.901 65.2868 150.035 65.1436 150.204C65.0003 150.368 64.8875 150.549 64.8052 150.746C64.7228 150.943 64.6619 151.136 64.6226 151.326V153.04C64.6906 153.312 64.7998 153.564 64.9502 153.797C65.1006 154.026 65.3011 154.21 65.5518 154.35C65.806 154.486 66.1157 154.554 66.481 154.554C66.7746 154.554 67.0288 154.493 67.2437 154.372C67.4585 154.25 67.6357 154.08 67.7754 153.861C67.9186 153.643 68.0243 153.389 68.0923 153.099C68.1639 152.809 68.1997 152.493 68.1997 152.153ZM73.8071 153.958V150.961C73.8071 150.685 73.7498 150.447 73.6353 150.247C73.5207 150.046 73.3524 149.892 73.1304 149.785C72.9084 149.677 72.6344 149.624 72.3086 149.624C72.0078 149.624 71.7393 149.677 71.5029 149.785C71.2702 149.889 71.0858 150.03 70.9497 150.209C70.8172 150.384 70.751 150.58 70.751 150.794L70.1064 150.789C70.1064 150.571 70.1602 150.359 70.2676 150.155C70.375 149.951 70.5272 149.769 70.7241 149.607C70.9211 149.446 71.1556 149.319 71.4277 149.226C71.7035 149.129 72.006 149.081 72.3354 149.081C72.7508 149.081 73.116 149.151 73.4312 149.291C73.7498 149.43 73.9987 149.64 74.1777 149.919C74.3568 150.198 74.4463 150.549 74.4463 150.972V153.781C74.4463 153.981 74.4606 154.189 74.4893 154.404C74.5215 154.619 74.5662 154.796 74.6235 154.936V155H73.9414C73.8984 154.871 73.8644 154.71 73.8394 154.517C73.8179 154.32 73.8071 154.133 73.8071 153.958ZM73.9575 151.616L73.9683 152.11H72.7061C72.3766 152.11 72.0812 152.141 71.8198 152.202C71.562 152.259 71.3436 152.345 71.1646 152.459C70.9855 152.57 70.8477 152.705 70.751 152.862C70.6579 153.02 70.6113 153.199 70.6113 153.399C70.6113 153.607 70.6632 153.797 70.7671 153.969C70.8745 154.141 71.0249 154.278 71.2183 154.382C71.4152 154.483 71.6479 154.533 71.9165 154.533C72.2746 154.533 72.5897 154.466 72.8618 154.334C73.1375 154.201 73.3649 154.028 73.5439 153.813C73.723 153.598 73.8429 153.364 73.9038 153.109L74.1831 153.48C74.1366 153.659 74.0506 153.843 73.9253 154.033C73.8035 154.219 73.6442 154.395 73.4473 154.56C73.2503 154.721 73.0176 154.853 72.749 154.957C72.484 155.057 72.1833 155.107 71.8467 155.107C71.4671 155.107 71.1359 155.036 70.853 154.893C70.5737 154.749 70.3553 154.554 70.1978 154.307C70.0438 154.056 69.9668 153.774 69.9668 153.458C69.9668 153.172 70.0277 152.916 70.1494 152.69C70.2712 152.461 70.4466 152.268 70.6758 152.11C70.9085 151.949 71.1878 151.827 71.5137 151.745C71.8431 151.659 72.2119 151.616 72.6201 151.616H73.9575ZM80.1343 151.788V152.336H76.686V151.788H80.1343ZM76.8525 149.188V155H76.2134V149.188H76.8525ZM80.6284 149.188V155H79.9839V149.188H80.6284ZM84.4097 149.188V155H83.7705V149.188H84.4097ZM86.5259 149.188V149.736H81.7295V149.188H86.5259ZM88.2661 153.958L91.4082 149.188H92.0527V155H91.4082V150.23L88.2661 155H87.6323V149.188H88.2661V153.958ZM94.4536 153.958L97.5957 149.188H98.2402V155H97.5957V150.23L94.4536 155H93.8198V149.188H94.4536V153.958ZM97.0049 147.104H97.5527C97.5527 147.373 97.4901 147.611 97.3647 147.819C97.243 148.027 97.0658 148.189 96.833 148.308C96.6003 148.426 96.3245 148.485 96.0059 148.485C95.526 148.485 95.1465 148.356 94.8672 148.098C94.5915 147.84 94.4536 147.509 94.4536 147.104H94.9961C94.9961 147.352 95.0713 147.566 95.2217 147.749C95.3757 147.928 95.637 148.018 96.0059 148.018C96.3639 148.018 96.62 147.926 96.7739 147.744C96.9279 147.561 97.0049 147.348 97.0049 147.104ZM103.928 151.788V152.336H100.48V151.788H103.928ZM100.646 149.188V155H100.007V149.188H100.646ZM104.422 149.188V155H103.778V149.188H104.422ZM105.797 152.186V152.008C105.797 151.586 105.858 151.195 105.98 150.837C106.102 150.479 106.275 150.17 106.501 149.908C106.73 149.647 107.004 149.444 107.323 149.301C107.641 149.154 107.996 149.081 108.386 149.081C108.78 149.081 109.136 149.154 109.455 149.301C109.774 149.444 110.048 149.647 110.277 149.908C110.506 150.17 110.681 150.479 110.803 150.837C110.925 151.195 110.986 151.586 110.986 152.008V152.186C110.986 152.608 110.925 152.998 110.803 153.356C110.681 153.711 110.506 154.019 110.277 154.28C110.051 154.542 109.779 154.746 109.46 154.893C109.142 155.036 108.787 155.107 108.397 155.107C108.003 155.107 107.647 155.036 107.328 154.893C107.009 154.746 106.736 154.542 106.506 154.28C106.277 154.019 106.102 153.711 105.98 153.356C105.858 152.998 105.797 152.608 105.797 152.186ZM106.437 152.008V152.186C106.437 152.504 106.479 152.807 106.565 153.093C106.651 153.376 106.777 153.629 106.941 153.851C107.106 154.069 107.31 154.241 107.554 154.366C107.797 154.492 108.078 154.554 108.397 154.554C108.712 154.554 108.99 154.492 109.229 154.366C109.473 154.241 109.677 154.069 109.842 153.851C110.007 153.629 110.13 153.376 110.212 153.093C110.298 152.807 110.341 152.504 110.341 152.186V152.008C110.341 151.693 110.298 151.394 110.212 151.111C110.13 150.828 110.005 150.576 109.836 150.354C109.672 150.132 109.468 149.957 109.224 149.828C108.981 149.699 108.701 149.634 108.386 149.634C108.071 149.634 107.792 149.699 107.548 149.828C107.308 149.957 107.104 150.132 106.936 150.354C106.771 150.576 106.646 150.828 106.56 151.111C106.478 151.394 106.437 151.693 106.437 152.008ZM114.563 155.107C114.183 155.107 113.834 155.038 113.516 154.898C113.201 154.758 112.925 154.561 112.688 154.307C112.456 154.053 112.275 153.752 112.146 153.405C112.021 153.054 111.958 152.671 111.958 152.255V152.024C111.958 151.577 112.024 151.172 112.157 150.811C112.289 150.449 112.472 150.139 112.705 149.881C112.937 149.624 113.202 149.427 113.5 149.291C113.8 149.151 114.115 149.081 114.445 149.081C114.814 149.081 115.141 149.147 115.428 149.28C115.714 149.409 115.954 149.593 116.147 149.833C116.344 150.069 116.493 150.35 116.593 150.676C116.694 150.999 116.744 151.355 116.744 151.745V152.137H112.345V151.589H116.104V151.514C116.097 151.188 116.031 150.884 115.906 150.601C115.784 150.315 115.601 150.082 115.358 149.903C115.114 149.724 114.81 149.634 114.445 149.634C114.173 149.634 113.922 149.692 113.693 149.806C113.467 149.921 113.272 150.085 113.107 150.3C112.946 150.512 112.821 150.764 112.731 151.058C112.646 151.348 112.603 151.67 112.603 152.024V152.255C112.603 152.578 112.649 152.878 112.742 153.158C112.839 153.433 112.975 153.677 113.15 153.888C113.329 154.099 113.541 154.264 113.784 154.382C114.028 154.5 114.296 154.56 114.59 154.56C114.934 154.56 115.238 154.497 115.503 154.372C115.768 154.243 116.006 154.04 116.217 153.765L116.62 154.076C116.495 154.262 116.337 154.434 116.147 154.592C115.961 154.749 115.737 154.875 115.476 154.968C115.215 155.061 114.91 155.107 114.563 155.107ZM120.342 152.186V152.008C120.342 151.586 120.403 151.195 120.525 150.837C120.647 150.479 120.82 150.17 121.046 149.908C121.275 149.647 121.549 149.444 121.868 149.301C122.186 149.154 122.541 149.081 122.931 149.081C123.325 149.081 123.681 149.154 124 149.301C124.319 149.444 124.593 149.647 124.822 149.908C125.051 150.17 125.226 150.479 125.348 150.837C125.47 151.195 125.531 151.586 125.531 152.008V152.186C125.531 152.608 125.47 152.998 125.348 153.356C125.226 153.711 125.051 154.019 124.822 154.28C124.596 154.542 124.324 154.746 124.005 154.893C123.687 155.036 123.332 155.107 122.942 155.107C122.548 155.107 122.192 155.036 121.873 154.893C121.554 154.746 121.28 154.542 121.051 154.28C120.822 154.019 120.647 153.711 120.525 153.356C120.403 152.998 120.342 152.608 120.342 152.186ZM120.981 152.008V152.186C120.981 152.504 121.024 152.807 121.11 153.093C121.196 153.376 121.322 153.629 121.486 153.851C121.651 154.069 121.855 154.241 122.099 154.366C122.342 154.492 122.623 154.554 122.942 154.554C123.257 154.554 123.535 154.492 123.774 154.366C124.018 154.241 124.222 154.069 124.387 153.851C124.551 153.629 124.675 153.376 124.757 153.093C124.843 152.807 124.886 152.504 124.886 152.186V152.008C124.886 151.693 124.843 151.394 124.757 151.111C124.675 150.828 124.55 150.576 124.381 150.354C124.217 150.132 124.013 149.957 123.769 149.828C123.526 149.699 123.246 149.634 122.931 149.634C122.616 149.634 122.337 149.699 122.093 149.828C121.853 149.957 121.649 150.132 121.481 150.354C121.316 150.576 121.191 150.828 121.105 151.111C121.023 151.394 120.981 151.693 120.981 152.008ZM130.633 146.659H131.187C131.187 146.927 131.138 147.151 131.042 147.33C130.948 147.509 130.816 147.654 130.644 147.765C130.472 147.876 130.27 147.964 130.037 148.028C129.808 148.089 129.557 148.141 129.285 148.184C128.952 148.234 128.646 148.343 128.367 148.512C128.091 148.68 127.855 148.911 127.658 149.205C127.461 149.495 127.312 149.854 127.212 150.284C127.115 150.71 127.076 151.21 127.094 151.783V152.282H126.541V151.783C126.541 151.153 126.601 150.594 126.723 150.107C126.848 149.616 127.026 149.197 127.255 148.85C127.488 148.503 127.763 148.227 128.082 148.023C128.404 147.815 128.761 147.679 129.151 147.615C129.516 147.557 129.806 147.488 130.021 147.405C130.239 147.323 130.395 147.221 130.488 147.099C130.585 146.977 130.633 146.831 130.633 146.659ZM129.205 149.57C129.584 149.57 129.926 149.634 130.23 149.763C130.535 149.892 130.794 150.075 131.009 150.311C131.228 150.544 131.394 150.819 131.509 151.138C131.627 151.453 131.686 151.799 131.686 152.175V152.347C131.686 152.748 131.625 153.117 131.503 153.453C131.385 153.79 131.213 154.082 130.988 154.329C130.766 154.576 130.495 154.767 130.177 154.903C129.862 155.039 129.509 155.107 129.119 155.107C128.725 155.107 128.37 155.039 128.055 154.903C127.74 154.767 127.47 154.576 127.244 154.329C127.019 154.082 126.845 153.79 126.723 153.453C126.601 153.117 126.541 152.748 126.541 152.347V152.175C126.541 152.071 126.551 151.969 126.573 151.869C126.598 151.768 126.628 151.67 126.664 151.573C126.7 151.473 126.736 151.375 126.771 151.278C126.897 150.952 127.074 150.662 127.303 150.408C127.532 150.15 127.806 149.946 128.125 149.795C128.447 149.645 128.807 149.57 129.205 149.57ZM129.108 150.118C128.689 150.118 128.336 150.214 128.05 150.408C127.767 150.597 127.552 150.85 127.405 151.165C127.258 151.477 127.185 151.813 127.185 152.175V152.347C127.185 152.644 127.226 152.925 127.309 153.19C127.391 153.455 127.513 153.691 127.674 153.899C127.839 154.103 128.041 154.264 128.281 154.382C128.521 154.5 128.8 154.56 129.119 154.56C129.434 154.56 129.711 154.5 129.951 154.382C130.191 154.264 130.392 154.103 130.553 153.899C130.714 153.691 130.836 153.455 130.918 153.19C131 152.925 131.042 152.644 131.042 152.347V152.175C131.042 151.903 131 151.643 130.918 151.396C130.836 151.149 130.712 150.931 130.547 150.741C130.386 150.547 130.184 150.395 129.94 150.284C129.701 150.173 129.423 150.118 129.108 150.118ZM135.064 154.554C135.337 154.554 135.591 154.504 135.827 154.404C136.067 154.3 136.264 154.148 136.418 153.947C136.576 153.743 136.665 153.494 136.687 153.201H137.299C137.281 153.569 137.168 153.899 136.96 154.189C136.756 154.475 136.488 154.701 136.155 154.866C135.825 155.027 135.462 155.107 135.064 155.107C134.66 155.107 134.302 155.034 133.99 154.887C133.682 154.74 133.424 154.536 133.217 154.275C133.009 154.01 132.852 153.702 132.744 153.351C132.64 152.997 132.588 152.615 132.588 152.207V151.981C132.588 151.573 132.64 151.194 132.744 150.843C132.852 150.488 133.009 150.18 133.217 149.919C133.424 149.654 133.682 149.448 133.99 149.301C134.298 149.154 134.654 149.081 135.059 149.081C135.474 149.081 135.847 149.165 136.176 149.333C136.509 149.502 136.774 149.74 136.971 150.048C137.172 150.356 137.281 150.721 137.299 151.144H136.687C136.669 150.832 136.586 150.563 136.439 150.338C136.293 150.112 136.099 149.939 135.859 149.817C135.619 149.695 135.353 149.634 135.059 149.634C134.73 149.634 134.449 149.699 134.216 149.828C133.983 149.953 133.793 150.127 133.646 150.349C133.503 150.567 133.398 150.818 133.33 151.101C133.262 151.38 133.228 151.674 133.228 151.981V152.207C133.228 152.519 133.26 152.816 133.324 153.099C133.392 153.378 133.498 153.627 133.641 153.845C133.788 154.064 133.978 154.237 134.21 154.366C134.447 154.492 134.731 154.554 135.064 154.554ZM142.536 149.188V149.747H139.592V149.188H142.536ZM143.057 149.188V155H142.417V149.188H143.057ZM139.42 149.188H140.06L139.931 151.912C139.909 152.352 139.873 152.742 139.823 153.083C139.777 153.423 139.712 153.715 139.63 153.958C139.548 154.198 139.442 154.395 139.313 154.549C139.188 154.703 139.035 154.817 138.856 154.893C138.677 154.964 138.468 155 138.228 155H137.986V154.42L138.185 154.415C138.339 154.407 138.473 154.375 138.588 154.318C138.706 154.261 138.806 154.169 138.889 154.044C138.975 153.919 139.044 153.754 139.098 153.55C139.155 153.346 139.2 153.097 139.232 152.803C139.268 152.506 139.295 152.157 139.313 151.756L139.42 149.188ZM146.516 154.42L148.326 149.188H149.019L146.559 155.935C146.508 156.067 146.444 156.214 146.365 156.375C146.29 156.536 146.19 156.69 146.064 156.837C145.943 156.987 145.789 157.109 145.603 157.202C145.42 157.299 145.196 157.347 144.931 157.347C144.863 157.347 144.775 157.338 144.668 157.32C144.564 157.306 144.489 157.292 144.442 157.277L144.437 156.735C144.476 156.746 144.534 156.755 144.609 156.762C144.684 156.769 144.736 156.772 144.765 156.772C144.997 156.772 145.193 156.733 145.35 156.654C145.511 156.576 145.646 156.457 145.753 156.3C145.86 156.146 145.955 155.952 146.038 155.72L146.516 154.42ZM144.824 149.188L146.677 154.178L146.849 154.85L146.381 155.113L144.125 149.188H144.824ZM151.94 152.314L149.583 149.188H150.356L152.268 151.734H153.342L153.283 152.314H151.94ZM152.327 152.25L150.13 155H149.314L151.924 151.756L152.327 152.25ZM153.686 149.188V155H153.047V149.188H153.686ZM157.167 149.188L154.798 152.314H153.466L153.396 151.734H154.476L156.382 149.188H157.167ZM156.613 155L154.411 152.25L154.819 151.756L157.43 155H156.613ZM159.143 153.958L162.285 149.188H162.93V155H162.285V150.23L159.143 155H158.509V149.188H159.143V153.958ZM167.221 152.32H165.18L165.169 151.783H166.91C167.261 151.783 167.552 151.745 167.785 151.67C168.021 151.591 168.199 151.475 168.317 151.321C168.439 151.167 168.5 150.977 168.5 150.751C168.5 150.58 168.464 150.429 168.392 150.3C168.324 150.171 168.22 150.066 168.081 149.983C167.944 149.901 167.773 149.84 167.565 149.801C167.361 149.758 167.123 149.736 166.851 149.736H165.363V155H164.724V149.188H166.851C167.205 149.188 167.522 149.221 167.801 149.285C168.084 149.346 168.326 149.439 168.526 149.564C168.727 149.69 168.879 149.851 168.983 150.048C169.09 150.241 169.144 150.47 169.144 150.735C169.144 150.914 169.11 151.083 169.042 151.24C168.974 151.394 168.874 151.534 168.741 151.659C168.612 151.781 168.453 151.881 168.263 151.96C168.073 152.035 167.855 152.082 167.608 152.1L167.221 152.32ZM167.221 155H164.981L165.229 154.452H167.221C167.543 154.452 167.817 154.411 168.043 154.329C168.269 154.246 168.439 154.125 168.553 153.963C168.671 153.802 168.73 153.607 168.73 153.378C168.73 153.163 168.671 152.977 168.553 152.819C168.439 152.662 168.269 152.54 168.043 152.454C167.817 152.365 167.543 152.32 167.221 152.32H165.739L165.75 151.783H167.656L167.93 151.987C168.224 152.012 168.478 152.091 168.693 152.223C168.908 152.356 169.074 152.524 169.192 152.728C169.311 152.929 169.37 153.149 169.37 153.389C169.37 153.654 169.319 153.888 169.219 154.092C169.119 154.293 168.974 154.461 168.784 154.597C168.598 154.73 168.372 154.83 168.107 154.898C167.842 154.966 167.547 155 167.221 155ZM174.343 153.958V150.961C174.343 150.685 174.286 150.447 174.171 150.247C174.057 150.046 173.889 149.892 173.667 149.785C173.444 149.677 173.171 149.624 172.845 149.624C172.544 149.624 172.275 149.677 172.039 149.785C171.806 149.889 171.622 150.03 171.486 150.209C171.353 150.384 171.287 150.58 171.287 150.794L170.643 150.789C170.643 150.571 170.696 150.359 170.804 150.155C170.911 149.951 171.063 149.769 171.26 149.607C171.457 149.446 171.692 149.319 171.964 149.226C172.24 149.129 172.542 149.081 172.872 149.081C173.287 149.081 173.652 149.151 173.967 149.291C174.286 149.43 174.535 149.64 174.714 149.919C174.893 150.198 174.982 150.549 174.982 150.972V153.781C174.982 153.981 174.997 154.189 175.025 154.404C175.058 154.619 175.102 154.796 175.16 154.936V155H174.478C174.435 154.871 174.401 154.71 174.375 154.517C174.354 154.32 174.343 154.133 174.343 153.958ZM174.494 151.616L174.504 152.11H173.242C172.913 152.11 172.617 152.141 172.356 152.202C172.098 152.259 171.88 152.345 171.701 152.459C171.522 152.57 171.384 152.705 171.287 152.862C171.194 153.02 171.147 153.199 171.147 153.399C171.147 153.607 171.199 153.797 171.303 153.969C171.411 154.141 171.561 154.278 171.754 154.382C171.951 154.483 172.184 154.533 172.453 154.533C172.811 154.533 173.126 154.466 173.398 154.334C173.674 154.201 173.901 154.028 174.08 153.813C174.259 153.598 174.379 153.364 174.44 153.109L174.719 153.48C174.673 153.659 174.587 153.843 174.461 154.033C174.34 154.219 174.18 154.395 173.983 154.56C173.786 154.721 173.554 154.853 173.285 154.957C173.02 155.057 172.719 155.107 172.383 155.107C172.003 155.107 171.672 155.036 171.389 154.893C171.11 154.749 170.891 154.554 170.734 154.307C170.58 154.056 170.503 153.774 170.503 153.458C170.503 153.172 170.564 152.916 170.686 152.69C170.807 152.461 170.983 152.268 171.212 152.11C171.445 151.949 171.724 151.827 172.05 151.745C172.379 151.659 172.748 151.616 173.156 151.616H174.494ZM180.67 151.788V152.336H177.222V151.788H180.67ZM177.389 149.188V155H176.75V149.188H177.389ZM181.165 149.188V155H180.52V149.188H181.165ZM183.571 153.958L186.713 149.188H187.357V155H186.713V150.23L183.571 155H182.937V149.188H183.571V153.958ZM191.327 155.107C190.947 155.107 190.598 155.038 190.279 154.898C189.964 154.758 189.688 154.561 189.452 154.307C189.219 154.053 189.039 153.752 188.91 153.405C188.784 153.054 188.722 152.671 188.722 152.255V152.024C188.722 151.577 188.788 151.172 188.92 150.811C189.053 150.449 189.236 150.139 189.468 149.881C189.701 149.624 189.966 149.427 190.263 149.291C190.564 149.151 190.879 149.081 191.208 149.081C191.577 149.081 191.905 149.147 192.191 149.28C192.478 149.409 192.718 149.593 192.911 149.833C193.108 150.069 193.257 150.35 193.357 150.676C193.457 150.999 193.507 151.355 193.507 151.745V152.137H189.108V151.589H192.868V151.514C192.861 151.188 192.795 150.884 192.669 150.601C192.548 150.315 192.365 150.082 192.122 149.903C191.878 149.724 191.574 149.634 191.208 149.634C190.936 149.634 190.686 149.692 190.457 149.806C190.231 149.921 190.036 150.085 189.871 150.3C189.71 150.512 189.585 150.764 189.495 151.058C189.409 151.348 189.366 151.67 189.366 152.024V152.255C189.366 152.578 189.413 152.878 189.506 153.158C189.603 153.433 189.739 153.677 189.914 153.888C190.093 154.099 190.304 154.264 190.548 154.382C190.791 154.5 191.06 154.56 191.354 154.56C191.697 154.56 192.002 154.497 192.267 154.372C192.532 154.243 192.77 154.04 192.981 153.765L193.384 154.076C193.258 154.262 193.101 154.434 192.911 154.592C192.725 154.749 192.501 154.875 192.24 154.968C191.978 155.061 191.674 155.107 191.327 155.107ZM194.716 154.608C194.716 154.483 194.755 154.377 194.834 154.291C194.916 154.201 195.027 154.157 195.167 154.157C195.31 154.157 195.423 154.201 195.505 154.291C195.588 154.377 195.629 154.483 195.629 154.608C195.629 154.73 195.588 154.833 195.505 154.919C195.423 155.005 195.31 155.048 195.167 155.048C195.027 155.048 194.916 155.005 194.834 154.919C194.755 154.833 194.716 154.73 194.716 154.608Z" fill="#1A1812"/>
</svg>
