<svg width="275" height="153" viewBox="0 0 275 153" fill="none" xmlns="http://www.w3.org/2000/svg">
<path d="M21.6878 0.399999L30.6758 17.228H30.7878L39.8598 0.399999H41.7918V20H39.2438V4.124H39.1318L30.2838 20.336H29.7798L21.1278 4.012H21.0158V20H19.7838V0.399999H21.6878ZM48.5221 20V0.399999H51.0701V8.968H55.3541C56.5861 8.968 57.6314 9.12667 58.4901 9.444C59.3674 9.74267 60.0768 10.1347 60.6181 10.62C61.1781 11.1053 61.5794 11.6653 61.8221 12.3C62.0834 12.9347 62.2141 13.5693 62.2141 14.204C62.2141 14.876 62.0928 15.5573 61.8501 16.248C61.6261 16.92 61.2434 17.536 60.7021 18.096C60.1608 18.656 59.4421 19.1133 58.5461 19.468C57.6501 19.8227 56.5301 20 55.1861 20H48.5221ZM51.0701 18.768H55.0461C55.6994 18.768 56.2874 18.656 56.8101 18.432C57.3514 18.208 57.8088 17.9 58.1821 17.508C58.5741 17.116 58.8728 16.668 59.0781 16.164C59.3021 15.6413 59.4141 15.0907 59.4141 14.512C59.4141 13.896 59.2928 13.3267 59.0501 12.804C58.8261 12.2627 58.4994 11.8053 58.0701 11.432C57.6594 11.04 57.1554 10.7413 56.5581 10.536C55.9794 10.312 55.3448 10.2 54.6541 10.2H51.0701V18.768ZM65.0141 0.399999H67.5621V20H65.0141V0.399999ZM100.897 0.399999V20H98.349V1.94H86.617V20H84.069V0.399999H100.897ZM105.652 10.2C105.652 9.136 105.848 8.00667 106.24 6.812C106.651 5.61733 107.285 4.52533 108.144 3.536C109.003 2.528 110.095 1.69733 111.42 1.044C112.745 0.390666 114.332 0.0639997 116.18 0.0639997C118.047 0.0639997 119.661 0.399999 121.024 1.072C122.405 1.72533 123.544 2.556 124.44 3.564C125.336 4.572 125.999 5.67333 126.428 6.868C126.857 8.044 127.072 9.15467 127.072 10.2C127.072 10.8907 126.969 11.6187 126.764 12.384C126.577 13.1493 126.288 13.9147 125.896 14.68C125.523 15.4267 125.037 16.1453 124.44 16.836C123.843 17.508 123.133 18.1053 122.312 18.628C121.509 19.1507 120.595 19.5707 119.568 19.888C118.56 20.1867 117.431 20.336 116.18 20.336C114.332 20.336 112.745 20.0093 111.42 19.356C110.095 18.684 109.003 17.844 108.144 16.836C107.285 15.828 106.651 14.736 106.24 13.56C105.848 12.3653 105.652 11.2453 105.652 10.2ZM108.396 10.2C108.396 11.5067 108.592 12.7107 108.984 13.812C109.395 14.8947 109.945 15.828 110.636 16.612C111.345 17.396 112.176 18.012 113.128 18.46C114.08 18.8893 115.116 19.104 116.236 19.104C117.337 19.104 118.373 18.8893 119.344 18.46C120.333 18.012 121.192 17.396 121.92 16.612C122.667 15.828 123.255 14.8947 123.684 13.812C124.113 12.7107 124.328 11.5067 124.328 10.2C124.328 8.89333 124.113 7.69867 123.684 6.616C123.255 5.51467 122.667 4.572 121.92 3.788C121.192 3.004 120.333 2.39733 119.344 1.968C118.373 1.52 117.337 1.296 116.236 1.296C115.116 1.296 114.08 1.52 113.128 1.968C112.176 2.39733 111.345 3.004 110.636 3.788C109.945 4.572 109.395 5.51467 108.984 6.616C108.592 7.69867 108.396 8.89333 108.396 10.2ZM133.743 0.399999L142.731 17.228H142.843L151.915 0.399999H153.847V20H151.299V4.124H151.187L142.339 20.336H141.835L133.183 4.012H133.071V20H131.839V0.399999H133.743ZM158.617 10.2C158.617 9.136 158.813 8.00667 159.205 6.812C159.615 5.61733 160.25 4.52533 161.109 3.536C161.967 2.528 163.059 1.69733 164.385 1.044C165.71 0.390666 167.297 0.0639997 169.145 0.0639997C171.011 0.0639997 172.626 0.399999 173.989 1.072C175.37 1.72533 176.509 2.556 177.405 3.564C178.301 4.572 178.963 5.67333 179.393 6.868C179.822 8.044 180.037 9.15467 180.037 10.2C180.037 10.8907 179.934 11.6187 179.729 12.384C179.542 13.1493 179.253 13.9147 178.861 14.68C178.487 15.4267 178.002 16.1453 177.405 16.836C176.807 17.508 176.098 18.1053 175.277 18.628C174.474 19.1507 173.559 19.5707 172.533 19.888C171.525 20.1867 170.395 20.336 169.145 20.336C167.297 20.336 165.71 20.0093 164.385 19.356C163.059 18.684 161.967 17.844 161.109 16.836C160.25 15.828 159.615 14.736 159.205 13.56C158.813 12.3653 158.617 11.2453 158.617 10.2ZM161.361 10.2C161.361 11.5067 161.557 12.7107 161.949 13.812C162.359 14.8947 162.91 15.828 163.601 16.612C164.31 17.396 165.141 18.012 166.093 18.46C167.045 18.8893 168.081 19.104 169.201 19.104C170.302 19.104 171.338 18.8893 172.309 18.46C173.298 18.012 174.157 17.396 174.885 16.612C175.631 15.828 176.219 14.8947 176.649 13.812C177.078 12.7107 177.293 11.5067 177.293 10.2C177.293 8.89333 177.078 7.69867 176.649 6.616C176.219 5.51467 175.631 4.572 174.885 3.788C174.157 3.004 173.298 2.39733 172.309 1.968C171.338 1.52 170.302 1.296 169.201 1.296C168.081 1.296 167.045 1.52 166.093 1.968C165.141 2.39733 164.31 3.004 163.601 3.788C162.91 4.572 162.359 5.51467 161.949 6.616C161.557 7.69867 161.361 8.89333 161.361 10.2ZM213.363 18.908L214.147 18.852V19.972C213.401 20.2147 212.617 20.336 211.795 20.336C211.515 20.336 211.245 20.3173 210.983 20.28C210.722 20.2613 210.461 20.196 210.199 20.084C209.957 19.9907 209.705 19.8507 209.443 19.664C209.182 19.4587 208.93 19.1973 208.687 18.88L202.667 9.584L199.419 12.916V20H197.011V12.916L193.763 9.584L187.743 18.88C187.482 19.1973 187.221 19.4587 186.959 19.664C186.717 19.8507 186.465 19.9907 186.203 20.084C185.961 20.196 185.709 20.2613 185.447 20.28C185.186 20.3173 184.915 20.336 184.635 20.336C183.814 20.336 183.03 20.2147 182.283 19.972V18.852L183.067 18.908C183.422 18.908 183.739 18.88 184.019 18.824C184.318 18.7493 184.598 18.628 184.859 18.46C185.121 18.292 185.373 18.068 185.615 17.788C185.877 17.508 186.147 17.1533 186.427 16.724L192.167 7.932L184.915 0.399999H186.735L197.011 11.04V0.399999H199.419V11.04L209.695 0.399999H211.515L204.263 7.932L210.003 16.724C210.545 17.5827 211.058 18.1613 211.543 18.46C212.029 18.7587 212.635 18.908 213.363 18.908ZM218.354 0.399999H231.01V1.94H220.902V8.968H229.582V10.312H220.902V18.46H231.01V20H218.354V0.399999ZM237.102 0.399999L246.09 17.228H246.202L255.274 0.399999H257.206V20H254.658V4.124H254.546L245.698 20.336H245.194L236.542 4.012H236.43V20H235.198V0.399999H237.102ZM39.0864 49.388L39.9264 50.144C39.6838 50.424 39.3291 50.7507 38.8624 51.124C38.3958 51.4973 37.8078 51.852 37.0984 52.188C36.4078 52.5053 35.5864 52.776 34.6344 53C33.7011 53.224 32.6371 53.336 31.4424 53.336C29.5571 53.336 27.9331 53.0467 26.5704 52.468C25.2078 51.8707 24.0878 51.096 23.2104 50.144C22.3331 49.1733 21.6798 48.072 21.2504 46.84C20.8398 45.5893 20.6344 44.3107 20.6344 43.004C20.6344 41.492 20.8958 40.1293 21.4184 38.916C21.9411 37.684 22.6784 36.6387 23.6304 35.78C24.5824 34.9027 25.7211 34.2307 27.0464 33.764C28.3904 33.2973 29.8744 33.064 31.4984 33.064C32.6184 33.064 33.6171 33.176 34.4944 33.4C35.3718 33.624 36.1371 33.932 36.7904 34.324C37.4438 34.716 37.9851 35.1827 38.4144 35.724C38.8624 36.2653 39.2264 36.8533 39.5064 37.488H37.4344C37.3038 37.096 37.0704 36.7133 36.7344 36.34C36.4171 35.948 35.9971 35.6027 35.4744 35.304C34.9704 35.0053 34.3824 34.7627 33.7104 34.576C33.0571 34.3893 32.3291 34.296 31.5264 34.296C30.3504 34.296 29.2584 34.5107 28.2504 34.94C27.2611 35.3693 26.4024 35.9667 25.6744 36.732C24.9464 37.4973 24.3771 38.412 23.9664 39.476C23.5744 40.5213 23.3784 41.6787 23.3784 42.948C23.3784 44.1427 23.5651 45.2907 23.9384 46.392C24.3304 47.4933 24.8998 48.464 25.6464 49.304C26.3931 50.144 27.3264 50.816 28.4464 51.32C29.5664 51.824 30.8544 52.076 32.3104 52.076C34.9238 52.076 37.1824 51.18 39.0864 49.388ZM52.9814 33.4L60.7374 51.684H63.4814V55.94H61.1014V53H44.0214V55.94H41.6134V51.684H44.2454L51.2734 33.4H52.9814ZM58.0494 51.684L51.5534 36.452H51.4414L45.5614 51.684H58.0494ZM67.6764 33.4H80.3324V34.94H70.2244V41.968H78.9044V43.312H70.2244V51.46H80.3324V53H67.6764V33.4ZM93.9282 33.4L102.44 53H99.6682L92.5842 36.536H92.4722L87.0122 50.396C86.6388 51.348 86.2095 52.076 85.7242 52.58C85.2575 53.084 84.7255 53.336 84.1282 53.336C83.7548 53.336 83.3815 53.308 83.0082 53.252C82.6535 53.196 82.3175 53.112 82.0002 53L82.7562 51.096C82.9428 51.1893 83.1482 51.3013 83.3722 51.432C83.5962 51.5627 83.8295 51.628 84.0722 51.628C84.6882 51.628 85.1362 51.376 85.4162 50.872C85.7148 50.368 86.0228 49.696 86.3402 48.856L92.3882 33.4H93.9282ZM117.533 47.232H107.873L105.409 53H104.121L112.409 33.4H113.809L122.937 53H120.221L117.533 47.232ZM116.945 45.972L112.549 36.536H112.437L108.405 45.972H116.945ZM134.401 53H131.853V34.94H124.349V33.4H141.905V34.94H134.401V53ZM145.825 53V33.4H148.373V41.968H152.657C153.889 41.968 154.934 42.1267 155.793 42.444C156.67 42.7427 157.38 43.1347 157.921 43.62C158.481 44.1053 158.882 44.6653 159.125 45.3C159.386 45.9347 159.517 46.5693 159.517 47.204C159.517 47.876 159.396 48.5573 159.153 49.248C158.929 49.92 158.546 50.536 158.005 51.096C157.464 51.656 156.745 52.1133 155.849 52.468C154.953 52.8227 153.833 53 152.489 53H145.825ZM148.373 51.768H152.349C153.002 51.768 153.59 51.656 154.113 51.432C154.654 51.208 155.112 50.9 155.485 50.508C155.877 50.116 156.176 49.668 156.381 49.164C156.605 48.6413 156.717 48.0907 156.717 47.512C156.717 46.896 156.596 46.3267 156.353 45.804C156.129 45.2627 155.802 44.8053 155.373 44.432C154.962 44.04 154.458 43.7413 153.861 43.536C153.282 43.312 152.648 43.2 151.957 43.2H148.373V51.768ZM174.344 53V33.4H181.344C182.315 33.4 183.155 33.5493 183.864 33.848C184.592 34.128 185.18 34.492 185.628 34.94C186.095 35.388 186.44 35.8827 186.664 36.424C186.888 36.9653 187 37.4973 187 38.02C187 38.6173 186.87 39.1867 186.608 39.728C186.347 40.2507 185.992 40.7173 185.544 41.128C185.115 41.52 184.611 41.8467 184.032 42.108C183.454 42.3507 182.838 42.472 182.184 42.472V42.584C182.595 42.6027 183.136 42.668 183.808 42.78C184.48 42.892 185.134 43.116 185.768 43.452C186.403 43.788 186.944 44.2733 187.392 44.908C187.859 45.5427 188.092 46.392 188.092 47.456C188.092 48.128 187.971 48.8 187.728 49.472C187.504 50.1253 187.131 50.7133 186.608 51.236C186.086 51.7587 185.395 52.188 184.536 52.524C183.678 52.8413 182.623 53 181.372 53H174.344ZM176.892 51.768H180.952C181.55 51.768 182.11 51.684 182.632 51.516C183.174 51.3293 183.64 51.0587 184.032 50.704C184.424 50.3493 184.732 49.92 184.956 49.416C185.199 48.912 185.32 48.3333 185.32 47.68C185.32 47.0827 185.208 46.5133 184.984 45.972C184.779 45.4307 184.452 44.9547 184.004 44.544C183.575 44.1333 183.024 43.8067 182.352 43.564C181.68 43.3213 180.887 43.2 179.972 43.2H176.892V51.768ZM176.892 41.968H180.252C180.812 41.968 181.335 41.8747 181.82 41.688C182.324 41.5013 182.763 41.24 183.136 40.904C183.528 40.568 183.827 40.1667 184.032 39.7C184.256 39.2333 184.368 38.7293 184.368 38.188C184.368 37.7587 184.294 37.3293 184.144 36.9C183.995 36.4707 183.752 36.088 183.416 35.752C183.099 35.416 182.679 35.1453 182.156 34.94C181.652 34.7347 181.036 34.632 180.308 34.632H176.892V41.968ZM203.174 47.232H193.514L191.05 53H189.762L198.05 33.4H199.45L208.578 53H205.862L203.174 47.232ZM202.586 45.972L198.19 36.536H198.078L194.046 45.972H202.586ZM235.33 33.4H237.906V53H212.79V33.4H215.338V51.46H224.074V33.4H226.622V51.46H235.33V33.4ZM244.618 33.4H257.274V34.94H247.166V41.968H255.846V43.312H247.166V51.46H257.274V53H244.618V33.4ZM33.1528 66.4V86H30.6048V67.94H18.8728V86H16.3248V66.4H33.1528ZM42.4158 77.824V86H39.8678V66.4H46.4198C47.5025 66.4 48.4451 66.5587 49.2478 66.876C50.0505 67.1933 50.7131 67.6227 51.2358 68.164C51.7771 68.6867 52.1785 69.312 52.4398 70.04C52.7011 70.7493 52.8318 71.496 52.8318 72.28C52.8318 73.1013 52.6825 73.876 52.3838 74.604C52.0851 75.3133 51.6371 75.948 51.0398 76.508C50.4611 77.0493 49.7331 77.4787 48.8558 77.796C47.9785 78.1133 46.9705 78.272 45.8318 78.272C45.1598 78.272 44.5438 78.2347 43.9838 78.16C43.4238 78.0667 42.9011 77.9547 42.4158 77.824ZM42.4158 67.632V76.676C42.8078 76.8253 43.2465 76.928 43.7318 76.984C44.2171 77.0213 44.7491 77.04 45.3278 77.04C46.1678 77.04 46.8865 76.9 47.4838 76.62C48.0811 76.34 48.5758 75.976 48.9678 75.528C49.3598 75.08 49.6398 74.5853 49.8078 74.044C49.9945 73.484 50.0878 72.9333 50.0878 72.392C50.0878 71.832 49.9851 71.272 49.7798 70.712C49.5931 70.1333 49.3038 69.62 48.9118 69.172C48.5198 68.7053 48.0251 68.332 47.4278 68.052C46.8305 67.772 46.1398 67.632 45.3558 67.632H42.4158ZM55.9 76.2C55.9 75.136 56.096 74.0067 56.488 72.812C56.8987 71.6173 57.5333 70.5253 58.392 69.536C59.2507 68.528 60.3427 67.6973 61.668 67.044C62.9933 66.3907 64.58 66.064 66.428 66.064C68.2947 66.064 69.9093 66.4 71.272 67.072C72.6533 67.7253 73.792 68.556 74.688 69.564C75.584 70.572 76.2467 71.6733 76.676 72.868C77.1053 74.044 77.32 75.1547 77.32 76.2C77.32 76.8907 77.2173 77.6187 77.012 78.384C76.8253 79.1493 76.536 79.9147 76.144 80.68C75.7707 81.4267 75.2853 82.1453 74.688 82.836C74.0907 83.508 73.3813 84.1053 72.56 84.628C71.7573 85.1507 70.8427 85.5707 69.816 85.888C68.808 86.1867 67.6787 86.336 66.428 86.336C64.58 86.336 62.9933 86.0093 61.668 85.356C60.3427 84.684 59.2507 83.844 58.392 82.836C57.5333 81.828 56.8987 80.736 56.488 79.56C56.096 78.3653 55.9 77.2453 55.9 76.2ZM58.644 76.2C58.644 77.5067 58.84 78.7107 59.232 79.812C59.6427 80.8947 60.1933 81.828 60.884 82.612C61.5933 83.396 62.424 84.012 63.376 84.46C64.328 84.8893 65.364 85.104 66.484 85.104C67.5853 85.104 68.6213 84.8893 69.592 84.46C70.5813 84.012 71.44 83.396 72.168 82.612C72.9147 81.828 73.5027 80.8947 73.932 79.812C74.3613 78.7107 74.576 77.5067 74.576 76.2C74.576 74.8933 74.3613 73.6987 73.932 72.616C73.5027 71.5147 72.9147 70.572 72.168 69.788C71.44 69.004 70.5813 68.3973 69.592 67.968C68.6213 67.52 67.5853 67.296 66.484 67.296C65.364 67.296 64.328 67.52 63.376 67.968C62.424 68.3973 61.5933 69.004 60.884 69.788C60.1933 70.572 59.6427 71.5147 59.232 72.616C58.84 73.6987 58.644 74.8933 58.644 76.2ZM98.9146 82.388L99.7546 83.144C99.5119 83.424 99.1572 83.7507 98.6906 84.124C98.2239 84.4973 97.6359 84.852 96.9266 85.188C96.2359 85.5053 95.4146 85.776 94.4626 86C93.5292 86.224 92.4652 86.336 91.2706 86.336C89.3852 86.336 87.7612 86.0467 86.3986 85.468C85.0359 84.8707 83.9159 84.096 83.0386 83.144C82.1612 82.1733 81.5079 81.072 81.0786 79.84C80.6679 78.5893 80.4626 77.3107 80.4626 76.004C80.4626 74.492 80.7239 73.1293 81.2466 71.916C81.7692 70.684 82.5066 69.6387 83.4586 68.78C84.4106 67.9027 85.5492 67.2307 86.8746 66.764C88.2186 66.2973 89.7026 66.064 91.3266 66.064C92.4466 66.064 93.4452 66.176 94.3226 66.4C95.1999 66.624 95.9652 66.932 96.6186 67.324C97.2719 67.716 97.8132 68.1827 98.2426 68.724C98.6906 69.2653 99.0546 69.8533 99.3346 70.488H97.2626C97.1319 70.096 96.8986 69.7133 96.5626 69.34C96.2452 68.948 95.8252 68.6027 95.3026 68.304C94.7986 68.0053 94.2106 67.7627 93.5386 67.576C92.8852 67.3893 92.1572 67.296 91.3546 67.296C90.1786 67.296 89.0866 67.5107 88.0786 67.94C87.0892 68.3693 86.2306 68.9667 85.5026 69.732C84.7746 70.4973 84.2052 71.412 83.7946 72.476C83.4026 73.5213 83.2066 74.6787 83.2066 75.948C83.2066 77.1427 83.3932 78.2907 83.7666 79.392C84.1586 80.4933 84.7279 81.464 85.4746 82.304C86.2212 83.144 87.1546 83.816 88.2746 84.32C89.3946 84.824 90.6826 85.076 92.1386 85.076C94.7519 85.076 97.0106 84.18 98.9146 82.388ZM111.214 86H108.666V67.94H101.162V66.4H118.718V67.94H111.214V86ZM125.185 77.824V86H122.637V66.4H129.189C130.272 66.4 131.215 66.5587 132.017 66.876C132.82 67.1933 133.483 67.6227 134.005 68.164C134.547 68.6867 134.948 69.312 135.209 70.04C135.471 70.7493 135.601 71.496 135.601 72.28C135.601 73.1013 135.452 73.876 135.153 74.604C134.855 75.3133 134.407 75.948 133.809 76.508C133.231 77.0493 132.503 77.4787 131.625 77.796C130.748 78.1133 129.74 78.272 128.601 78.272C127.929 78.272 127.313 78.2347 126.753 78.16C126.193 78.0667 125.671 77.9547 125.185 77.824ZM125.185 67.632V76.676C125.577 76.8253 126.016 76.928 126.501 76.984C126.987 77.0213 127.519 77.04 128.097 77.04C128.937 77.04 129.656 76.9 130.253 76.62C130.851 76.34 131.345 75.976 131.737 75.528C132.129 75.08 132.409 74.5853 132.577 74.044C132.764 73.484 132.857 72.9333 132.857 72.392C132.857 71.832 132.755 71.272 132.549 70.712C132.363 70.1333 132.073 69.62 131.681 69.172C131.289 68.7053 130.795 68.332 130.197 68.052C129.6 67.772 128.909 67.632 128.125 67.632H125.185ZM151.522 80.232H141.862L139.398 86H138.11L146.398 66.4H147.798L156.926 86H154.21L151.522 80.232ZM150.934 78.972L146.538 69.536H146.426L142.394 78.972H150.934ZM163.685 76.256V86H161.137V66.4H163.685V74.968H175.417V66.4H177.965V86H175.417V76.256H163.685ZM201.508 82.388L202.348 83.144C202.106 83.424 201.751 83.7507 201.284 84.124C200.818 84.4973 200.23 84.852 199.52 85.188C198.83 85.5053 198.008 85.776 197.056 86C196.123 86.224 195.059 86.336 193.864 86.336C191.979 86.336 190.355 86.0467 188.992 85.468C187.63 84.8707 186.51 84.096 185.632 83.144C184.755 82.1733 184.102 81.072 183.672 79.84C183.262 78.5893 183.056 77.3107 183.056 76.004C183.056 74.492 183.318 73.1293 183.84 71.916C184.363 70.684 185.1 69.6387 186.052 68.78C187.004 67.9027 188.143 67.2307 189.468 66.764C190.812 66.2973 192.296 66.064 193.92 66.064C195.04 66.064 196.039 66.176 196.916 66.4C197.794 66.624 198.559 66.932 199.212 67.324C199.866 67.716 200.407 68.1827 200.836 68.724C201.284 69.2653 201.648 69.8533 201.928 70.488H199.856C199.726 70.096 199.492 69.7133 199.156 69.34C198.839 68.948 198.419 68.6027 197.896 68.304C197.392 68.0053 196.804 67.7627 196.132 67.576C195.479 67.3893 194.751 67.296 193.948 67.296C192.772 67.296 191.68 67.5107 190.672 67.94C189.683 68.3693 188.824 68.9667 188.096 69.732C187.368 70.4973 186.799 71.412 186.388 72.476C185.996 73.5213 185.8 74.6787 185.8 75.948C185.8 77.1427 185.987 78.2907 186.36 79.392C186.752 80.4933 187.322 81.464 188.068 82.304C188.815 83.144 189.748 83.816 190.868 84.32C191.988 84.824 193.276 85.076 194.732 85.076C197.346 85.076 199.604 84.18 201.508 82.388ZM213.807 86H211.259V67.94H203.755V66.4H221.311V67.94H213.807V86ZM225.231 86V66.4H232.231C233.202 66.4 234.042 66.5493 234.751 66.848C235.479 67.128 236.067 67.492 236.515 67.94C236.982 68.388 237.327 68.8827 237.551 69.424C237.775 69.9653 237.887 70.4973 237.887 71.02C237.887 71.6173 237.756 72.1867 237.495 72.728C237.234 73.2507 236.879 73.7173 236.431 74.128C236.002 74.52 235.498 74.8467 234.919 75.108C234.34 75.3507 233.724 75.472 233.071 75.472V75.584C233.482 75.6027 234.023 75.668 234.695 75.78C235.367 75.892 236.02 76.116 236.655 76.452C237.29 76.788 237.831 77.2733 238.279 77.908C238.746 78.5427 238.979 79.392 238.979 80.456C238.979 81.128 238.858 81.8 238.615 82.472C238.391 83.1253 238.018 83.7133 237.495 84.236C236.972 84.7587 236.282 85.188 235.423 85.524C234.564 85.8413 233.51 86 232.259 86H225.231ZM227.779 84.768H231.839C232.436 84.768 232.996 84.684 233.519 84.516C234.06 84.3293 234.527 84.0587 234.919 83.704C235.311 83.3493 235.619 82.92 235.843 82.416C236.086 81.912 236.207 81.3333 236.207 80.68C236.207 80.0827 236.095 79.5133 235.871 78.972C235.666 78.4307 235.339 77.9547 234.891 77.544C234.462 77.1333 233.911 76.8067 233.239 76.564C232.567 76.3213 231.774 76.2 230.859 76.2H227.779V84.768ZM227.779 74.968H231.139C231.699 74.968 232.222 74.8747 232.707 74.688C233.211 74.5013 233.65 74.24 234.023 73.904C234.415 73.568 234.714 73.1667 234.919 72.7C235.143 72.2333 235.255 71.7293 235.255 71.188C235.255 70.7587 235.18 70.3293 235.031 69.9C234.882 69.4707 234.639 69.088 234.303 68.752C233.986 68.416 233.566 68.1453 233.043 67.94C232.539 67.7347 231.923 67.632 231.195 67.632H227.779V74.968ZM241.209 76.2C241.209 75.136 241.405 74.0067 241.797 72.812C242.207 71.6173 242.842 70.5253 243.701 69.536C244.559 68.528 245.651 67.6973 246.977 67.044C248.302 66.3907 249.889 66.064 251.737 66.064C253.603 66.064 255.218 66.4 256.581 67.072C257.962 67.7253 259.101 68.556 259.997 69.564C260.893 70.572 261.555 71.6733 261.985 72.868C262.414 74.044 262.629 75.1547 262.629 76.2C262.629 76.8907 262.526 77.6187 262.321 78.384C262.134 79.1493 261.845 79.9147 261.453 80.68C261.079 81.4267 260.594 82.1453 259.997 82.836C259.399 83.508 258.69 84.1053 257.869 84.628C257.066 85.1507 256.151 85.5707 255.125 85.888C254.117 86.1867 252.987 86.336 251.737 86.336C249.889 86.336 248.302 86.0093 246.977 85.356C245.651 84.684 244.559 83.844 243.701 82.836C242.842 81.828 242.207 80.736 241.797 79.56C241.405 78.3653 241.209 77.2453 241.209 76.2ZM243.953 76.2C243.953 77.5067 244.149 78.7107 244.541 79.812C244.951 80.8947 245.502 81.828 246.193 82.612C246.902 83.396 247.733 84.012 248.685 84.46C249.637 84.8893 250.673 85.104 251.793 85.104C252.894 85.104 253.93 84.8893 254.901 84.46C255.89 84.012 256.749 83.396 257.477 82.612C258.223 81.828 258.811 80.8947 259.241 79.812C259.67 78.7107 259.885 77.5067 259.885 76.2C259.885 74.8933 259.67 73.6987 259.241 72.616C258.811 71.5147 258.223 70.572 257.477 69.788C256.749 69.004 255.89 68.3973 254.901 67.968C253.93 67.52 252.894 67.296 251.793 67.296C250.673 67.296 249.637 67.52 248.685 67.968C247.733 68.3973 246.902 69.004 246.193 69.788C245.502 70.572 244.951 71.5147 244.541 72.616C244.149 73.6987 243.953 74.8933 243.953 76.2ZM9.29542 99.064C10.7141 99.064 12.0394 99.2787 13.2714 99.708C14.5221 100.137 15.6048 100.772 16.5194 101.612C17.4528 102.433 18.1808 103.46 18.7034 104.692C19.2448 105.905 19.5154 107.305 19.5154 108.892C19.5154 109.62 19.4314 110.385 19.2634 111.188C19.0954 111.991 18.8248 112.775 18.4514 113.54C18.0968 114.305 17.6394 115.043 17.0794 115.752C16.5194 116.461 15.8568 117.077 15.0914 117.6C14.3261 118.123 13.4488 118.543 12.4594 118.86C11.4701 119.177 10.3594 119.336 9.12742 119.336C8.28742 119.336 7.44742 119.261 6.60742 119.112C5.78609 118.963 4.99276 118.729 4.22742 118.412C3.48076 118.095 2.78076 117.693 2.12742 117.208C1.47409 116.723 0.914089 116.144 0.447422 115.472L1.87542 114.1C2.23009 114.66 2.64076 115.183 3.10742 115.668C3.59276 116.153 4.12476 116.583 4.70342 116.956C5.30076 117.311 5.94476 117.591 6.63542 117.796C7.34476 118.001 8.11009 118.104 8.93142 118.104C10.1634 118.104 11.2554 117.861 12.2074 117.376C13.1781 116.891 13.9901 116.247 14.6434 115.444C15.3154 114.623 15.8288 113.689 16.1834 112.644C16.5381 111.58 16.7154 110.488 16.7154 109.368V109.228H7.39142V107.968H16.7154V107.856C16.7154 106.96 16.5568 106.064 16.2394 105.168C15.9221 104.272 15.4368 103.46 14.7834 102.732C14.1488 102.004 13.3554 101.416 12.4034 100.968C11.4514 100.52 10.3314 100.296 9.04342 100.296C8.22209 100.296 7.44742 100.399 6.71942 100.604C6.01009 100.809 5.35676 101.099 4.75942 101.472C4.16209 101.827 3.62076 102.247 3.13542 102.732C2.65009 103.217 2.23009 103.74 1.87542 104.3L0.447422 102.928C1.39942 101.584 2.65009 100.604 4.19942 99.988C5.76742 99.372 7.46609 99.064 9.29542 99.064ZM27.117 110.824V119H24.569V99.4H31.121C32.2037 99.4 33.1463 99.5587 33.949 99.876C34.7517 100.193 35.4143 100.623 35.937 101.164C36.4783 101.687 36.8797 102.312 37.141 103.04C37.4023 103.749 37.533 104.496 37.533 105.28C37.533 106.101 37.3837 106.876 37.085 107.604C36.7863 108.313 36.3383 108.948 35.741 109.508C35.1623 110.049 34.4343 110.479 33.557 110.796C32.6797 111.113 31.6717 111.272 30.533 111.272C29.861 111.272 29.245 111.235 28.685 111.16C28.125 111.067 27.6023 110.955 27.117 110.824ZM27.117 100.632V109.676C27.509 109.825 27.9477 109.928 28.433 109.984C28.9183 110.021 29.4503 110.04 30.029 110.04C30.869 110.04 31.5877 109.9 32.185 109.62C32.7823 109.34 33.277 108.976 33.669 108.528C34.061 108.08 34.341 107.585 34.509 107.044C34.6957 106.484 34.789 105.933 34.789 105.392C34.789 104.832 34.6863 104.272 34.481 103.712C34.2943 103.133 34.005 102.62 33.613 102.172C33.221 101.705 32.7263 101.332 32.129 101.052C31.5317 100.772 30.841 100.632 30.057 100.632H27.117ZM42.5612 99.4H54.5172V100.94H45.1092V119H42.5612V99.4ZM56.7613 109.2C56.7613 108.136 56.9573 107.007 57.3493 105.812C57.76 104.617 58.3947 103.525 59.2533 102.536C60.112 101.528 61.204 100.697 62.5293 100.044C63.8547 99.3907 65.4413 99.064 67.2893 99.064C69.156 99.064 70.7707 99.4 72.1333 100.072C73.5147 100.725 74.6533 101.556 75.5493 102.564C76.4453 103.572 77.108 104.673 77.5373 105.868C77.9667 107.044 78.1813 108.155 78.1813 109.2C78.1813 109.891 78.0787 110.619 77.8733 111.384C77.6867 112.149 77.3973 112.915 77.0053 113.68C76.632 114.427 76.1467 115.145 75.5493 115.836C74.952 116.508 74.2427 117.105 73.4213 117.628C72.6187 118.151 71.704 118.571 70.6773 118.888C69.6693 119.187 68.54 119.336 67.2893 119.336C65.4413 119.336 63.8547 119.009 62.5293 118.356C61.204 117.684 60.112 116.844 59.2533 115.836C58.3947 114.828 57.76 113.736 57.3493 112.56C56.9573 111.365 56.7613 110.245 56.7613 109.2ZM59.5053 109.2C59.5053 110.507 59.7013 111.711 60.0933 112.812C60.504 113.895 61.0547 114.828 61.7453 115.612C62.4547 116.396 63.2853 117.012 64.2373 117.46C65.1893 117.889 66.2253 118.104 67.3453 118.104C68.4467 118.104 69.4827 117.889 70.4533 117.46C71.4427 117.012 72.3013 116.396 73.0293 115.612C73.776 114.828 74.364 113.895 74.7933 112.812C75.2227 111.711 75.4373 110.507 75.4373 109.2C75.4373 107.893 75.2227 106.699 74.7933 105.616C74.364 104.515 73.776 103.572 73.0293 102.788C72.3013 102.004 71.4427 101.397 70.4533 100.968C69.4827 100.52 68.4467 100.296 67.3453 100.296C66.2253 100.296 65.1893 100.52 64.2373 100.968C63.2853 101.397 62.4547 102.004 61.7453 102.788C61.0547 103.572 60.504 104.515 60.0933 105.616C59.7013 106.699 59.5053 107.893 59.5053 109.2ZM85.4959 109.256V119H82.9479V99.4H85.4959V107.968H97.2279V99.4H99.7759V119H97.2279V109.256H85.4959ZM104.531 109.2C104.531 108.136 104.727 107.007 105.119 105.812C105.53 104.617 106.164 103.525 107.023 102.536C107.882 101.528 108.974 100.697 110.299 100.044C111.624 99.3907 113.211 99.064 115.059 99.064C116.926 99.064 118.54 99.4 119.903 100.072C121.284 100.725 122.423 101.556 123.319 102.564C124.215 103.572 124.878 104.673 125.307 105.868C125.736 107.044 125.951 108.155 125.951 109.2C125.951 109.891 125.848 110.619 125.643 111.384C125.456 112.149 125.167 112.915 124.775 113.68C124.402 114.427 123.916 115.145 123.319 115.836C122.722 116.508 122.012 117.105 121.191 117.628C120.388 118.151 119.474 118.571 118.447 118.888C117.439 119.187 116.31 119.336 115.059 119.336C113.211 119.336 111.624 119.009 110.299 118.356C108.974 117.684 107.882 116.844 107.023 115.836C106.164 114.828 105.53 113.736 105.119 112.56C104.727 111.365 104.531 110.245 104.531 109.2ZM107.275 109.2C107.275 110.507 107.471 111.711 107.863 112.812C108.274 113.895 108.824 114.828 109.515 115.612C110.224 116.396 111.055 117.012 112.007 117.46C112.959 117.889 113.995 118.104 115.115 118.104C116.216 118.104 117.252 117.889 118.223 117.46C119.212 117.012 120.071 116.396 120.799 115.612C121.546 114.828 122.134 113.895 122.563 112.812C122.992 111.711 123.207 110.507 123.207 109.2C123.207 107.893 122.992 106.699 122.563 105.616C122.134 104.515 121.546 103.572 120.799 102.788C120.071 102.004 119.212 101.397 118.223 100.968C117.252 100.52 116.216 100.296 115.115 100.296C113.995 100.296 112.959 100.52 112.007 100.968C111.055 101.397 110.224 102.004 109.515 102.788C108.824 103.572 108.274 104.515 107.863 105.616C107.471 106.699 107.275 107.893 107.275 109.2ZM132.621 99.4L141.609 116.228H141.721L150.793 99.4H152.725V119H150.177V103.124H150.065L141.217 119.336H140.713L132.061 103.012H131.949V119H130.717V99.4H132.621ZM162.004 116.704L173.624 99.4H176.172V119H173.624V101.5L162.004 119H159.456V99.4H162.004V116.704ZM193.445 109.452V99.4H195.993V119H193.445V110.684C192.605 110.796 191.653 110.908 190.589 111.02C189.525 111.113 188.555 111.16 187.677 111.16C186.184 111.16 185.008 111.048 184.149 110.824C183.291 110.581 182.647 110.273 182.217 109.9C181.788 109.508 181.508 109.079 181.377 108.612C181.265 108.145 181.209 107.679 181.209 107.212V99.4H183.757V106.456C183.757 106.885 183.785 107.305 183.841 107.716C183.916 108.127 184.112 108.5 184.429 108.836C184.747 109.153 185.251 109.415 185.941 109.62C186.632 109.825 187.593 109.928 188.825 109.928C189.105 109.928 189.432 109.919 189.805 109.9C190.197 109.881 190.599 109.853 191.009 109.816C191.439 109.76 191.859 109.704 192.269 109.648C192.699 109.592 193.091 109.527 193.445 109.452ZM205.262 109.256V119H202.714V99.4H205.262V107.968H216.994V99.4H219.542V119H216.994V109.256H205.262ZM226.256 119V99.4H228.804V107.968H233.088C234.32 107.968 235.366 108.127 236.224 108.444C237.102 108.743 237.811 109.135 238.352 109.62C238.912 110.105 239.314 110.665 239.556 111.3C239.818 111.935 239.948 112.569 239.948 113.204C239.948 113.876 239.827 114.557 239.584 115.248C239.36 115.92 238.978 116.536 238.436 117.096C237.895 117.656 237.176 118.113 236.28 118.468C235.384 118.823 234.264 119 232.92 119H226.256ZM228.804 117.768H232.78C233.434 117.768 234.022 117.656 234.544 117.432C235.086 117.208 235.543 116.9 235.916 116.508C236.308 116.116 236.607 115.668 236.812 115.164C237.036 114.641 237.148 114.091 237.148 113.512C237.148 112.896 237.027 112.327 236.784 111.804C236.56 111.263 236.234 110.805 235.804 110.432C235.394 110.04 234.89 109.741 234.292 109.536C233.714 109.312 233.079 109.2 232.388 109.2H228.804V117.768ZM242.748 99.4H245.296V119H242.748V99.4ZM253.918 99.4L262.906 116.228H263.018L272.09 99.4H274.022V119H271.474V103.124H271.362L262.514 119.336H262.01L253.358 103.012H253.246V119H252.014V99.4H253.918ZM4.77714 149.704L16.3971 132.4H18.9451V152H16.3971V134.5L4.77714 152H2.22914V132.4H4.77714V149.704ZM52.2798 148.388L53.1198 149.144C52.8771 149.424 52.5225 149.751 52.0558 150.124C51.5891 150.497 51.0011 150.852 50.2918 151.188C49.6011 151.505 48.7798 151.776 47.8278 152C46.8945 152.224 45.8305 152.336 44.6358 152.336C42.7505 152.336 41.1265 152.047 39.7638 151.468C38.4011 150.871 37.2811 150.096 36.4038 149.144C35.5265 148.173 34.8731 147.072 34.4438 145.84C34.0331 144.589 33.8278 143.311 33.8278 142.004C33.8278 140.492 34.0891 139.129 34.6118 137.916C35.1345 136.684 35.8718 135.639 36.8238 134.78C37.7758 133.903 38.9145 133.231 40.2398 132.764C41.5838 132.297 43.0678 132.064 44.6918 132.064C45.8118 132.064 46.8105 132.176 47.6878 132.4C48.5651 132.624 49.3305 132.932 49.9838 133.324C50.6371 133.716 51.1785 134.183 51.6078 134.724C52.0558 135.265 52.4198 135.853 52.6998 136.488H50.6278C50.4971 136.096 50.2638 135.713 49.9278 135.34C49.6105 134.948 49.1905 134.603 48.6678 134.304C48.1638 134.005 47.5758 133.763 46.9038 133.576C46.2505 133.389 45.5225 133.296 44.7198 133.296C43.5438 133.296 42.4518 133.511 41.4438 133.94C40.4545 134.369 39.5958 134.967 38.8678 135.732C38.1398 136.497 37.5705 137.412 37.1598 138.476C36.7678 139.521 36.5718 140.679 36.5718 141.948C36.5718 143.143 36.7585 144.291 37.1318 145.392C37.5238 146.493 38.0931 147.464 38.8398 148.304C39.5865 149.144 40.5198 149.816 41.6398 150.32C42.7598 150.824 44.0478 151.076 45.5038 151.076C48.1171 151.076 50.3758 150.18 52.2798 148.388ZM55.3668 142.2C55.3668 141.136 55.5628 140.007 55.9548 138.812C56.3655 137.617 57.0001 136.525 57.8588 135.536C58.7175 134.528 59.8095 133.697 61.1348 133.044C62.4601 132.391 64.0468 132.064 65.8948 132.064C67.7615 132.064 69.3761 132.4 70.7388 133.072C72.1201 133.725 73.2588 134.556 74.1548 135.564C75.0508 136.572 75.7135 137.673 76.1428 138.868C76.5721 140.044 76.7868 141.155 76.7868 142.2C76.7868 142.891 76.6841 143.619 76.4788 144.384C76.2921 145.149 76.0028 145.915 75.6108 146.68C75.2375 147.427 74.7521 148.145 74.1548 148.836C73.5575 149.508 72.8481 150.105 72.0268 150.628C71.2241 151.151 70.3095 151.571 69.2828 151.888C68.2748 152.187 67.1455 152.336 65.8948 152.336C64.0468 152.336 62.4601 152.009 61.1348 151.356C59.8095 150.684 58.7175 149.844 57.8588 148.836C57.0001 147.828 56.3655 146.736 55.9548 145.56C55.5628 144.365 55.3668 143.245 55.3668 142.2ZM58.1108 142.2C58.1108 143.507 58.3068 144.711 58.6988 145.812C59.1095 146.895 59.6601 147.828 60.3508 148.612C61.0601 149.396 61.8908 150.012 62.8428 150.46C63.7948 150.889 64.8308 151.104 65.9508 151.104C67.0521 151.104 68.0881 150.889 69.0588 150.46C70.0481 150.012 70.9068 149.396 71.6348 148.612C72.3815 147.828 72.9695 146.895 73.3988 145.812C73.8281 144.711 74.0428 143.507 74.0428 142.2C74.0428 140.893 73.8281 139.699 73.3988 138.616C72.9695 137.515 72.3815 136.572 71.6348 135.788C70.9068 135.004 70.0481 134.397 69.0588 133.968C68.0881 133.52 67.0521 133.296 65.9508 133.296C64.8308 133.296 63.7948 133.52 62.8428 133.968C61.8908 134.397 61.0601 135.004 60.3508 135.788C59.6601 136.572 59.1095 137.515 58.6988 138.616C58.3068 139.699 58.1108 140.893 58.1108 142.2ZM81.5534 152V132.4H88.5534C89.524 132.4 90.364 132.549 91.0734 132.848C91.8014 133.128 92.3894 133.492 92.8374 133.94C93.304 134.388 93.6494 134.883 93.8734 135.424C94.0974 135.965 94.2094 136.497 94.2094 137.02C94.2094 137.617 94.0787 138.187 93.8174 138.728C93.556 139.251 93.2014 139.717 92.7534 140.128C92.324 140.52 91.82 140.847 91.2414 141.108C90.6627 141.351 90.0467 141.472 89.3934 141.472V141.584C89.804 141.603 90.3454 141.668 91.0174 141.78C91.6894 141.892 92.3427 142.116 92.9774 142.452C93.612 142.788 94.1534 143.273 94.6014 143.908C95.068 144.543 95.3014 145.392 95.3014 146.456C95.3014 147.128 95.18 147.8 94.9374 148.472C94.7134 149.125 94.34 149.713 93.8174 150.236C93.2947 150.759 92.604 151.188 91.7454 151.524C90.8867 151.841 89.832 152 88.5814 152H81.5534ZM84.1014 150.768H88.1614C88.7587 150.768 89.3187 150.684 89.8414 150.516C90.3827 150.329 90.8494 150.059 91.2414 149.704C91.6334 149.349 91.9414 148.92 92.1654 148.416C92.408 147.912 92.5294 147.333 92.5294 146.68C92.5294 146.083 92.4174 145.513 92.1934 144.972C91.988 144.431 91.6614 143.955 91.2134 143.544C90.784 143.133 90.2334 142.807 89.5614 142.564C88.8894 142.321 88.096 142.2 87.1814 142.2H84.1014V150.768ZM84.1014 140.968H87.4614C88.0214 140.968 88.544 140.875 89.0294 140.688C89.5334 140.501 89.972 140.24 90.3454 139.904C90.7374 139.568 91.036 139.167 91.2414 138.7C91.4654 138.233 91.5774 137.729 91.5774 137.188C91.5774 136.759 91.5027 136.329 91.3534 135.9C91.204 135.471 90.9614 135.088 90.6254 134.752C90.308 134.416 89.888 134.145 89.3654 133.94C88.8614 133.735 88.2454 133.632 87.5174 133.632H84.1014V140.968ZM102.039 143.824V152H99.4909V132.4H106.043C107.126 132.4 108.068 132.559 108.871 132.876C109.674 133.193 110.336 133.623 110.859 134.164C111.4 134.687 111.802 135.312 112.063 136.04C112.324 136.749 112.455 137.496 112.455 138.28C112.455 139.101 112.306 139.876 112.007 140.604C111.708 141.313 111.26 141.948 110.663 142.508C110.084 143.049 109.356 143.479 108.479 143.796C107.602 144.113 106.594 144.272 105.455 144.272C104.783 144.272 104.167 144.235 103.607 144.16C103.047 144.067 102.524 143.955 102.039 143.824ZM102.039 133.632V142.676C102.431 142.825 102.87 142.928 103.355 142.984C103.84 143.021 104.372 143.04 104.951 143.04C105.791 143.04 106.51 142.9 107.107 142.62C107.704 142.34 108.199 141.976 108.591 141.528C108.983 141.08 109.263 140.585 109.431 140.044C109.618 139.484 109.711 138.933 109.711 138.392C109.711 137.832 109.608 137.272 109.403 136.712C109.216 136.133 108.927 135.62 108.535 135.172C108.143 134.705 107.648 134.332 107.051 134.052C106.454 133.772 105.763 133.632 104.979 133.632H102.039ZM117.483 132.4H130.139V133.94H120.031V140.968H128.711V142.312H120.031V150.46H130.139V152H117.483V132.4ZM136.231 132.4L145.219 149.228H145.331L154.403 132.4H156.335V152H153.787V136.124H153.675L144.827 152.336H144.323L135.671 136.012H135.559V152H134.327V132.4H136.231ZM163.065 132.4H175.721V133.94H165.613V140.968H174.293V142.312H165.613V150.46H175.721V152H163.065V132.4ZM182.457 142.256V152H179.909V132.4H182.457V140.968H194.189V132.4H196.737V152H194.189V142.256H182.457ZM206 142.256V152H203.452V132.4H206V140.968H217.732V132.4H220.28V152H217.732V142.256H206ZM226.995 152V132.4H229.543V140.968H233.827C235.059 140.968 236.104 141.127 236.963 141.444C237.84 141.743 238.549 142.135 239.091 142.62C239.651 143.105 240.052 143.665 240.295 144.3C240.556 144.935 240.687 145.569 240.687 146.204C240.687 146.876 240.565 147.557 240.323 148.248C240.099 148.92 239.716 149.536 239.175 150.096C238.633 150.656 237.915 151.113 237.019 151.468C236.123 151.823 235.003 152 233.659 152H226.995ZM229.543 150.768H233.519C234.172 150.768 234.76 150.656 235.283 150.432C235.824 150.208 236.281 149.9 236.655 149.508C237.047 149.116 237.345 148.668 237.551 148.164C237.775 147.641 237.887 147.091 237.887 146.512C237.887 145.896 237.765 145.327 237.523 144.804C237.299 144.263 236.972 143.805 236.543 143.432C236.132 143.04 235.628 142.741 235.031 142.536C234.452 142.312 233.817 142.2 233.127 142.2H229.543V150.768ZM243.487 132.4H246.035V152H243.487V132.4ZM254.657 132.4L263.645 149.228H263.757L272.829 132.4H274.761V152H272.213V136.124H272.101L263.253 152.336H262.749L254.097 136.012H253.985V152H252.753V132.4H254.657Z" fill="#1A1812"/>
</svg>
