<svg width="1140" height="193" viewBox="0 0 1140 193" fill="none" xmlns="http://www.w3.org/2000/svg">
          <path d="M93.4414 96C93.4414 94.48 93.7214 92.8667 94.2814 91.16C94.8681 89.4533 95.7747 87.8933 97.0014 86.48C98.2281 85.04 99.7881 83.8533 101.681 82.92C103.575 81.9867 105.841 81.52 108.481 81.52C111.148 81.52 113.455 82 115.401 82.96C117.375 83.8933 119.001 85.08 120.281 86.52C121.561 87.96 122.508 89.5333 123.121 91.24C123.735 92.92 124.041 94.5067 124.041 96C124.041 96.9867 123.895 98.0267 123.601 99.12C123.335 100.213 122.921 101.307 122.361 102.4C121.828 103.467 121.135 104.493 120.281 105.48C119.428 106.44 118.415 107.293 117.241 108.04C116.095 108.787 114.788 109.387 113.321 109.84C111.881 110.267 110.268 110.48 108.481 110.48C105.841 110.48 103.575 110.013 101.681 109.08C99.7881 108.12 98.2281 106.92 97.0014 105.48C95.7747 104.04 94.8681 102.48 94.2814 100.8C93.7214 99.0933 93.4414 97.4933 93.4414 96ZM97.3614 96C97.3614 97.8667 97.6414 99.5867 98.2014 101.16C98.7881 102.707 99.5747 104.04 100.561 105.16C101.575 106.28 102.761 107.16 104.121 107.8C105.481 108.413 106.961 108.72 108.561 108.72C110.135 108.72 111.615 108.413 113.001 107.8C114.415 107.16 115.641 106.28 116.681 105.16C117.748 104.04 118.588 102.707 119.201 101.16C119.815 99.5867 120.121 97.8667 120.121 96C120.121 94.1333 119.815 92.4267 119.201 90.88C118.588 89.3067 117.748 87.96 116.681 86.84C115.641 85.72 114.415 84.8533 113.001 84.24C111.615 83.6 110.135 83.28 108.561 83.28C106.961 83.28 105.481 83.6 104.121 84.24C102.761 84.8533 101.575 85.72 100.561 86.84C99.5747 87.96 98.7881 89.3067 98.2014 90.88C97.6414 92.4267 97.3614 94.1333 97.3614 96ZM154.891 82V110H151.251V84.2H134.491V110H130.851V82H154.891ZM177.924 82L190.084 110H186.124L176.004 86.48H175.844L168.044 106.28C167.51 107.64 166.897 108.68 166.204 109.4C165.537 110.12 164.777 110.48 163.924 110.48C163.39 110.48 162.857 110.44 162.324 110.36C161.817 110.28 161.337 110.16 160.884 110L161.964 107.28C162.23 107.413 162.524 107.573 162.844 107.76C163.164 107.947 163.497 108.04 163.844 108.04C164.724 108.04 165.364 107.68 165.764 106.96C166.19 106.24 166.63 105.28 167.084 104.08L175.724 82H177.924ZM211.645 101.76H197.845L194.325 110H192.485L204.325 82H206.325L219.365 110H215.485L211.645 101.76ZM210.805 99.96L204.525 86.48H204.365L198.605 99.96H210.805ZM235.742 110H232.102V84.2H221.382V82H246.462V84.2H235.742V110ZM267.622 101.76H253.822L250.302 110H248.462L260.302 82H262.302L275.342 110H271.462L267.622 101.76ZM266.782 99.96L260.502 86.48H260.342L254.582 99.96H266.782Z" fill="#1A1812"/>
          <rect x="0.5" y="0.5" width="366" height="192" rx="9.5" stroke="#AAC3AD"/>
          <path d="M467.772 82L478.852 108.12H482.772V114.2H479.372V110H454.972V114.2H451.532V108.12H455.292L465.332 82H467.772ZM475.012 108.12L465.732 86.36H465.572L457.172 108.12H475.012ZM485.965 96C485.965 94.48 486.245 92.8667 486.805 91.16C487.392 89.4533 488.298 87.8933 489.525 86.48C490.752 85.04 492.312 83.8533 494.205 82.92C496.098 81.9867 498.365 81.52 501.005 81.52C503.672 81.52 505.978 82 507.925 82.96C509.898 83.8933 511.525 85.08 512.805 86.52C514.085 87.96 515.032 89.5333 515.645 91.24C516.258 92.92 516.565 94.5067 516.565 96C516.565 96.9867 516.418 98.0267 516.125 99.12C515.858 100.213 515.445 101.307 514.885 102.4C514.352 103.467 513.658 104.493 512.805 105.48C511.952 106.44 510.938 107.293 509.765 108.04C508.618 108.787 507.312 109.387 505.845 109.84C504.405 110.267 502.792 110.48 501.005 110.48C498.365 110.48 496.098 110.013 494.205 109.08C492.312 108.12 490.752 106.92 489.525 105.48C488.298 104.04 487.392 102.48 486.805 100.8C486.245 99.0933 485.965 97.4933 485.965 96ZM489.885 96C489.885 97.8667 490.165 99.5867 490.725 101.16C491.312 102.707 492.098 104.04 493.085 105.16C494.098 106.28 495.285 107.16 496.645 107.8C498.005 108.413 499.485 108.72 501.085 108.72C502.658 108.72 504.138 108.413 505.525 107.8C506.938 107.16 508.165 106.28 509.205 105.16C510.272 104.04 511.112 102.707 511.725 101.16C512.338 99.5867 512.645 97.8667 512.645 96C512.645 94.1333 512.338 92.4267 511.725 90.88C511.112 89.3067 510.272 87.96 509.205 86.84C508.165 85.72 506.938 84.8533 505.525 84.24C504.138 83.6 502.658 83.28 501.085 83.28C499.485 83.28 498.005 83.6 496.645 84.24C495.285 84.8533 494.098 85.72 493.085 86.84C492.098 87.96 491.312 89.3067 490.725 90.88C490.165 92.4267 489.885 94.1333 489.885 96ZM547.414 104.84L548.614 105.92C548.268 106.32 547.761 106.787 547.094 107.32C546.428 107.853 545.588 108.36 544.574 108.84C543.588 109.293 542.414 109.68 541.054 110C539.721 110.32 538.201 110.48 536.494 110.48C533.801 110.48 531.481 110.067 529.534 109.24C527.588 108.387 525.988 107.28 524.734 105.92C523.481 104.533 522.548 102.96 521.934 101.2C521.348 99.4133 521.054 97.5867 521.054 95.72C521.054 93.56 521.428 91.6133 522.174 89.88C522.921 88.12 523.974 86.6267 525.334 85.4C526.694 84.1467 528.321 83.1867 530.214 82.52C532.134 81.8533 534.254 81.52 536.574 81.52C538.174 81.52 539.601 81.68 540.854 82C542.108 82.32 543.201 82.76 544.134 83.32C545.068 83.88 545.841 84.5467 546.454 85.32C547.094 86.0933 547.614 86.9333 548.014 87.84H545.054C544.868 87.28 544.534 86.7333 544.054 86.2C543.601 85.64 543.001 85.1467 542.254 84.72C541.534 84.2933 540.694 83.9467 539.734 83.68C538.801 83.4133 537.761 83.28 536.614 83.28C534.934 83.28 533.374 83.5867 531.934 84.2C530.521 84.8133 529.294 85.6667 528.254 86.76C527.214 87.8533 526.401 89.16 525.814 90.68C525.254 92.1733 524.974 93.8267 524.974 95.64C524.974 97.3467 525.241 98.9867 525.774 100.56C526.334 102.133 527.148 103.52 528.214 104.72C529.281 105.92 530.614 106.88 532.214 107.6C533.814 108.32 535.654 108.68 537.734 108.68C541.468 108.68 544.694 107.4 547.414 104.84ZM564.984 110H561.344V84.2H550.624V82H575.704V84.2H564.984V110ZM596.864 101.76H583.064L579.544 110H577.704L589.544 82H591.544L604.584 110H600.704L596.864 101.76ZM596.024 99.96L589.744 86.48H589.584L583.824 99.96H596.024ZM610.601 110V82H620.601C621.987 82 623.187 82.2133 624.201 82.64C625.241 83.04 626.081 83.56 626.721 84.2C627.387 84.84 627.881 85.5467 628.201 86.32C628.521 87.0933 628.681 87.8533 628.681 88.6C628.681 89.4533 628.494 90.2667 628.121 91.04C627.747 91.7867 627.241 92.4533 626.601 93.04C625.987 93.6 625.267 94.0667 624.441 94.44C623.614 94.7867 622.734 94.96 621.801 94.96V95.12C622.387 95.1467 623.161 95.24 624.121 95.4C625.081 95.56 626.014 95.88 626.921 96.36C627.827 96.84 628.601 97.5333 629.241 98.44C629.907 99.3467 630.241 100.56 630.241 102.08C630.241 103.04 630.067 104 629.721 104.96C629.401 105.893 628.867 106.733 628.121 107.48C627.374 108.227 626.387 108.84 625.161 109.32C623.934 109.773 622.427 110 620.641 110H610.601ZM614.241 108.24H620.041C620.894 108.24 621.694 108.12 622.441 107.88C623.214 107.613 623.881 107.227 624.441 106.72C625.001 106.213 625.441 105.6 625.761 104.88C626.107 104.16 626.281 103.333 626.281 102.4C626.281 101.547 626.121 100.733 625.801 99.96C625.507 99.1867 625.041 98.5067 624.401 97.92C623.787 97.3333 623.001 96.8667 622.041 96.52C621.081 96.1733 619.947 96 618.641 96H614.241V108.24ZM614.241 94.24H619.041C619.841 94.24 620.587 94.1067 621.281 93.84C622.001 93.5733 622.627 93.2 623.161 92.72C623.721 92.24 624.147 91.6667 624.441 91C624.761 90.3333 624.921 89.6133 624.921 88.84C624.921 88.2267 624.814 87.6133 624.601 87C624.387 86.3867 624.041 85.84 623.561 85.36C623.107 84.88 622.507 84.4933 621.761 84.2C621.041 83.9067 620.161 83.76 619.121 83.76H614.241V94.24ZM636.226 110V82H639.866V97.76L654.866 82H656.866L646.706 92.84L659.186 110H655.026L644.386 95.32L639.866 100.16V110H636.226ZM680.731 101.76H666.931L663.411 110H661.571L673.411 82H675.411L688.451 110H684.571L680.731 101.76ZM679.891 99.96L673.611 86.48H673.451L667.691 99.96H679.891Z" fill="#1A1812"/>
          <rect x="387.5" y="0.5" width="365" height="192" rx="9.5" stroke="#AAC3AD"/>
          <path d="M897.02 104.84L898.22 105.92C897.873 106.32 897.366 106.787 896.7 107.32C896.033 107.853 895.193 108.36 894.18 108.84C893.193 109.293 892.02 109.68 890.66 110C889.326 110.32 887.806 110.48 886.1 110.48C883.406 110.48 881.086 110.067 879.14 109.24C877.193 108.387 875.593 107.28 874.34 105.92C873.086 104.533 872.153 102.96 871.54 101.2C870.953 99.4133 870.66 97.5867 870.66 95.72C870.66 93.56 871.033 91.6133 871.78 89.88C872.526 88.12 873.58 86.6267 874.94 85.4C876.3 84.1467 877.926 83.1867 879.82 82.52C881.74 81.8533 883.86 81.52 886.18 81.52C887.78 81.52 889.206 81.68 890.46 82C891.713 82.32 892.806 82.76 893.74 83.32C894.673 83.88 895.446 84.5467 896.06 85.32C896.7 86.0933 897.22 86.9333 897.62 87.84H894.66C894.473 87.28 894.14 86.7333 893.66 86.2C893.206 85.64 892.606 85.1467 891.86 84.72C891.14 84.2933 890.3 83.9467 889.34 83.68C888.406 83.4133 887.366 83.28 886.22 83.28C884.54 83.28 882.98 83.5867 881.54 84.2C880.126 84.8133 878.9 85.6667 877.86 86.76C876.82 87.8533 876.006 89.16 875.42 90.68C874.86 92.1733 874.58 93.8267 874.58 95.64C874.58 97.3467 874.846 98.9867 875.38 100.56C875.94 102.133 876.753 103.52 877.82 104.72C878.886 105.92 880.22 106.88 881.82 107.6C883.42 108.32 885.26 108.68 887.34 108.68C891.073 108.68 894.3 107.4 897.02 104.84ZM907.87 84.2V94.24H913.43C915.51 94.24 917.216 94.48 918.55 94.96C919.91 95.4133 920.976 96.0133 921.75 96.76C922.55 97.5067 923.096 98.3467 923.39 99.28C923.71 100.213 923.87 101.147 923.87 102.08C923.87 103.013 923.71 103.947 923.39 104.88C923.096 105.813 922.563 106.667 921.79 107.44C921.016 108.187 919.95 108.8 918.59 109.28C917.256 109.76 915.536 110 913.43 110H904.23V82H921.31V84.2H907.87ZM907.87 108.32H913.39C914.216 108.32 915.016 108.187 915.79 107.92C916.59 107.653 917.283 107.28 917.87 106.8C918.483 106.293 918.976 105.667 919.35 104.92C919.723 104.173 919.91 103.32 919.91 102.36C919.91 101.453 919.75 100.613 919.43 99.84C919.11 99.04 918.656 98.36 918.07 97.8C917.51 97.24 916.803 96.8 915.95 96.48C915.123 96.16 914.19 96 913.15 96H907.87V108.32ZM928.266 96C928.266 94.48 928.546 92.8667 929.106 91.16C929.692 89.4533 930.599 87.8933 931.826 86.48C933.052 85.04 934.612 83.8533 936.506 82.92C938.399 81.9867 940.666 81.52 943.306 81.52C945.972 81.52 948.279 82 950.226 82.96C952.199 83.8933 953.826 85.08 955.106 86.52C956.386 87.96 957.332 89.5333 957.946 91.24C958.559 92.92 958.866 94.5067 958.866 96C958.866 96.9867 958.719 98.0267 958.426 99.12C958.159 100.213 957.746 101.307 957.186 102.4C956.652 103.467 955.959 104.493 955.106 105.48C954.252 106.44 953.239 107.293 952.066 108.04C950.919 108.787 949.612 109.387 948.146 109.84C946.706 110.267 945.092 110.48 943.306 110.48C940.666 110.48 938.399 110.013 936.506 109.08C934.612 108.12 933.052 106.92 931.826 105.48C930.599 104.04 929.692 102.48 929.106 100.8C928.546 99.0933 928.266 97.4933 928.266 96ZM932.186 96C932.186 97.8667 932.466 99.5867 933.026 101.16C933.612 102.707 934.399 104.04 935.386 105.16C936.399 106.28 937.586 107.16 938.946 107.8C940.306 108.413 941.786 108.72 943.386 108.72C944.959 108.72 946.439 108.413 947.826 107.8C949.239 107.16 950.466 106.28 951.506 105.16C952.572 104.04 953.412 102.707 954.026 101.16C954.639 99.5867 954.946 97.8667 954.946 96C954.946 94.1333 954.639 92.4267 954.026 90.88C953.412 89.3067 952.572 87.96 951.506 86.84C950.466 85.72 949.239 84.8533 947.826 84.24C946.439 83.6 944.959 83.28 943.386 83.28C941.786 83.28 940.306 83.6 938.946 84.24C937.586 84.8533 936.399 85.72 935.386 86.84C934.399 87.96 933.612 89.3067 933.026 90.88C932.466 92.4267 932.186 94.1333 932.186 96ZM969.315 98.32V110H965.675V82H975.035C976.582 82 977.928 82.2267 979.075 82.68C980.222 83.1333 981.168 83.7467 981.915 84.52C982.688 85.2667 983.262 86.16 983.635 87.2C984.008 88.2133 984.195 89.28 984.195 90.4C984.195 91.5733 983.982 92.68 983.555 93.72C983.128 94.7333 982.488 95.64 981.635 96.44C980.808 97.2133 979.768 97.8267 978.515 98.28C977.262 98.7333 975.822 98.96 974.195 98.96C973.235 98.96 972.355 98.9067 971.555 98.8C970.755 98.6667 970.008 98.5067 969.315 98.32ZM969.315 83.76V96.68C969.875 96.8933 970.502 97.04 971.195 97.12C971.888 97.1733 972.648 97.2 973.475 97.2C974.675 97.2 975.702 97 976.555 96.6C977.408 96.2 978.115 95.68 978.675 95.04C979.235 94.4 979.635 93.6933 979.875 92.92C980.142 92.12 980.275 91.3333 980.275 90.56C980.275 89.76 980.128 88.96 979.835 88.16C979.568 87.3333 979.155 86.6 978.595 85.96C978.035 85.2933 977.328 84.76 976.475 84.36C975.622 83.96 974.635 83.76 973.515 83.76H969.315ZM991.378 110V82H995.018V97.76L1010.02 82H1012.02L1001.86 92.84L1014.34 110H1010.18L999.538 95.32L995.018 100.16V110H991.378ZM1035.88 101.76H1022.08L1018.56 110H1016.72L1028.56 82H1030.56L1043.6 110H1039.72L1035.88 101.76ZM1035.04 99.96L1028.76 86.48H1028.6L1022.84 99.96H1035.04Z" fill="#1A1812"/>
          <rect x="773.5" y="0.5" width="366" height="192" rx="9.5" stroke="#AAC3AD"/>
        </svg>